<svg xmlns="http://www.w3.org/2000/svg" viewBox="0 0 800 700" font-family="Arial, sans-serif">
  <!-- Background -->
  <rect width="800" height="700" fill="#ffffff"/>

  <!-- Title -->
  <text x="400" y="35" text-anchor="middle" font-size="20" font-weight="bold" fill="#333">8×8 卦象棋盤 | Hexagram Grid</text>

  <!-- Axis Labels -->
  <text x="400" y="65" text-anchor="middle" font-size="14" fill="#666">上卦 (Upper Trigram) →</text>
  <text x="30" y="380" text-anchor="middle" font-size="14" fill="#666" transform="rotate(-90, 30, 380)">下卦 (Lower Trigram) →</text>

  <!-- Grid Header - Upper Trigrams -->
  <g font-size="12" text-anchor="middle" fill="#333">
    <text x="130" y="95">乾</text>
    <text x="210" y="95">兌</text>
    <text x="290" y="95">離</text>
    <text x="370" y="95">震</text>
    <text x="450" y="95">巽</text>
    <text x="530" y="95">坎</text>
    <text x="610" y="95">艮</text>
    <text x="690" y="95">坤</text>
  </g>

  <!-- Grid Row Labels - Lower Trigrams -->
  <g font-size="12" text-anchor="end" fill="#333">
    <text x="85" y="145">乾</text>
    <text x="85" y="215">兌</text>
    <text x="85" y="285">離</text>
    <text x="85" y="355">震</text>
    <text x="85" y="425">巽</text>
    <text x="85" y="495">坎</text>
    <text x="85" y="565">艮</text>
    <text x="85" y="635">坤</text>
  </g>

  <!-- Grid Cells with Color Coding -->
  <!-- Row 1: 乾 as Lower -->
  <rect x="95" y="110" width="70" height="60" fill="#e8f5e9" stroke="#4caf50" stroke-width="1"/>
  <rect x="175" y="110" width="70" height="60" fill="#fff3e0" stroke="#ff9800" stroke-width="1"/>
  <rect x="255" y="110" width="70" height="60" fill="#fff3e0" stroke="#ff9800" stroke-width="1"/>
  <rect x="335" y="110" width="70" height="60" fill="#e8f5e9" stroke="#4caf50" stroke-width="1"/>
  <rect x="415" y="110" width="70" height="60" fill="#e8f5e9" stroke="#4caf50" stroke-width="1"/>
  <rect x="495" y="110" width="70" height="60" fill="#fff3e0" stroke="#ff9800" stroke-width="1"/>
  <rect x="575" y="110" width="70" height="60" fill="#fff3e0" stroke="#ff9800" stroke-width="1"/>
  <rect x="655" y="110" width="70" height="60" fill="#e8f5e9" stroke="#4caf50" stroke-width="1"/>

  <!-- Row 2: 兌 as Lower -->
  <rect x="95" y="180" width="70" height="60" fill="#fff3e0" stroke="#ff9800" stroke-width="1"/>
  <rect x="175" y="180" width="70" height="60" fill="#fff3e0" stroke="#ff9800" stroke-width="1"/>
  <rect x="255" y="180" width="70" height="60" fill="#e8f5e9" stroke="#4caf50" stroke-width="1"/>
  <rect x="335" y="180" width="70" height="60" fill="#fff3e0" stroke="#ff9800" stroke-width="1"/>
  <rect x="415" y="180" width="70" height="60" fill="#fff3e0" stroke="#ff9800" stroke-width="1"/>
  <rect x="495" y="180" width="70" height="60" fill="#ffebee" stroke="#f44336" stroke-width="1"/>
  <rect x="575" y="180" width="70" height="60" fill="#fff3e0" stroke="#ff9800" stroke-width="1"/>
  <rect x="655" y="180" width="70" height="60" fill="#e8f5e9" stroke="#4caf50" stroke-width="1"/>

  <!-- Row 3: 離 as Lower -->
  <rect x="95" y="250" width="70" height="60" fill="#fff3e0" stroke="#ff9800" stroke-width="1"/>
  <rect x="175" y="250" width="70" height="60" fill="#fff3e0" stroke="#ff9800" stroke-width="1"/>
  <rect x="255" y="250" width="70" height="60" fill="#fff3e0" stroke="#ff9800" stroke-width="1"/>
  <rect x="335" y="250" width="70" height="60" fill="#ffebee" stroke="#f44336" stroke-width="1"/>
  <rect x="415" y="250" width="70" height="60" fill="#e8f5e9" stroke="#4caf50" stroke-width="1"/>
  <rect x="495" y="250" width="70" height="60" fill="#fff3e0" stroke="#ff9800" stroke-width="1"/>
  <rect x="575" y="250" width="70" height="60" fill="#fff3e0" stroke="#ff9800" stroke-width="1"/>
  <rect x="655" y="250" width="70" height="60" fill="#fff3e0" stroke="#ff9800" stroke-width="1"/>

  <!-- Row 4: 震 as Lower -->
  <rect x="95" y="320" width="70" height="60" fill="#fff3e0" stroke="#ff9800" stroke-width="1"/>
  <rect x="175" y="320" width="70" height="60" fill="#fff3e0" stroke="#ff9800" stroke-width="1"/>
  <rect x="255" y="320" width="70" height="60" fill="#fff3e0" stroke="#ff9800" stroke-width="1"/>
  <rect x="335" y="320" width="70" height="60" fill="#fff3e0" stroke="#ff9800" stroke-width="1"/>
  <rect x="415" y="320" width="70" height="60" fill="#e8f5e9" stroke="#4caf50" stroke-width="1"/>
  <rect x="495" y="320" width="70" height="60" fill="#fff3e0" stroke="#ff9800" stroke-width="1"/>
  <rect x="575" y="320" width="70" height="60" fill="#ffebee" stroke="#f44336" stroke-width="1"/>
  <rect x="655" y="320" width="70" height="60" fill="#e8f5e9" stroke="#4caf50" stroke-width="1"/>

  <!-- Row 5: 巽 as Lower -->
  <rect x="95" y="390" width="70" height="60" fill="#fff3e0" stroke="#ff9800" stroke-width="1"/>
  <rect x="175" y="390" width="70" height="60" fill="#fff3e0" stroke="#ff9800" stroke-width="1"/>
  <rect x="255" y="390" width="70" height="60" fill="#fff3e0" stroke="#ff9800" stroke-width="1"/>
  <rect x="335" y="390" width="70" height="60" fill="#fff3e0" stroke="#ff9800" stroke-width="1"/>
  <rect x="415" y="390" width="70" height="60" fill="#fff3e0" stroke="#ff9800" stroke-width="1"/>
  <rect x="495" y="390" width="70" height="60" fill="#fff3e0" stroke="#ff9800" stroke-width="1"/>
  <rect x="575" y="390" width="70" height="60" fill="#fff3e0" stroke="#ff9800" stroke-width="1"/>
  <rect x="655" y="390" width="70" height="60" fill="#e8f5e9" stroke="#4caf50" stroke-width="1"/>

  <!-- Row 6: 坎 as Lower -->
  <rect x="95" y="460" width="70" height="60" fill="#e8f5e9" stroke="#4caf50" stroke-width="1"/>
  <rect x="175" y="460" width="70" height="60" fill="#fff3e0" stroke="#ff9800" stroke-width="1"/>
  <rect x="255" y="460" width="70" height="60" fill="#fff3e0" stroke="#ff9800" stroke-width="1"/>
  <rect x="335" y="460" width="70" height="60" fill="#fff3e0" stroke="#ff9800" stroke-width="1"/>
  <rect x="415" y="460" width="70" height="60" fill="#fff3e0" stroke="#ff9800" stroke-width="1"/>
  <rect x="495" y="460" width="70" height="60" fill="#ffebee" stroke="#f44336" stroke-width="1"/>
  <rect x="575" y="460" width="70" height="60" fill="#fff3e0" stroke="#ff9800" stroke-width="1"/>
  <rect x="655" y="460" width="70" height="60" fill="#fff3e0" stroke="#ff9800" stroke-width="1"/>

  <!-- Row 7: 艮 as Lower -->
  <rect x="95" y="530" width="70" height="60" fill="#fff3e0" stroke="#ff9800" stroke-width="1"/>
  <rect x="175" y="530" width="70" height="60" fill="#fff3e0" stroke="#ff9800" stroke-width="1"/>
  <rect x="255" y="530" width="70" height="60" fill="#fff3e0" stroke="#ff9800" stroke-width="1"/>
  <rect x="335" y="530" width="70" height="60" fill="#ffebee" stroke="#f44336" stroke-width="1"/>
  <rect x="415" y="530" width="70" height="60" fill="#fff3e0" stroke="#ff9800" stroke-width="1"/>
  <rect x="495" y="530" width="70" height="60" fill="#fff3e0" stroke="#ff9800" stroke-width="1"/>
  <rect x="575" y="530" width="70" height="60" fill="#ffebee" stroke="#f44336" stroke-width="1"/>
  <rect x="655" y="530" width="70" height="60" fill="#ffebee" stroke="#f44336" stroke-width="1"/>

  <!-- Row 8: 坤 as Lower (Best) -->
  <rect x="95" y="600" width="70" height="60" fill="#c8e6c9" stroke="#4caf50" stroke-width="2"/>
  <rect x="175" y="600" width="70" height="60" fill="#e8f5e9" stroke="#4caf50" stroke-width="1"/>
  <rect x="255" y="600" width="70" height="60" fill="#e8f5e9" stroke="#4caf50" stroke-width="1"/>
  <rect x="335" y="600" width="70" height="60" fill="#c8e6c9" stroke="#4caf50" stroke-width="2"/>
  <rect x="415" y="600" width="70" height="60" fill="#c8e6c9" stroke="#4caf50" stroke-width="2"/>
  <rect x="495" y="600" width="70" height="60" fill="#e8f5e9" stroke="#4caf50" stroke-width="1"/>
  <rect x="575" y="600" width="70" height="60" fill="#fff3e0" stroke="#ff9800" stroke-width="1"/>
  <rect x="655" y="600" width="70" height="60" fill="#e8f5e9" stroke="#4caf50" stroke-width="1"/>

  <!-- Hexagram Numbers (1-64) in cells -->
  <g font-size="10" text-anchor="middle" fill="#333">
    <!-- Row 1 -->
    <text x="130" y="145">1 乾</text>
    <text x="210" y="145">10 履</text>
    <text x="290" y="145">13 同人</text>
    <text x="370" y="145">25 无妄</text>
    <text x="450" y="145">44 姤</text>
    <text x="530" y="145">6 訟</text>
    <text x="610" y="145">33 遯</text>
    <text x="690" y="145">12 否</text>

    <!-- Row 2 -->
    <text x="130" y="215">43 夬</text>
    <text x="210" y="215">58 兌</text>
    <text x="290" y="215">49 革</text>
    <text x="370" y="215">17 隨</text>
    <text x="450" y="215">28 大過</text>
    <text x="530" y="215">47 困</text>
    <text x="610" y="215">31 咸</text>
    <text x="690" y="215">45 萃</text>

    <!-- Row 3 -->
    <text x="130" y="285">14 大有</text>
    <text x="210" y="285">38 睽</text>
    <text x="290" y="285">30 離</text>
    <text x="370" y="285">21 噬嗑</text>
    <text x="450" y="285">50 鼎</text>
    <text x="530" y="285">64 未濟</text>
    <text x="610" y="285">56 旅</text>
    <text x="690" y="285">35 晉</text>

    <!-- Row 4 -->
    <text x="130" y="355">34 大壯</text>
    <text x="210" y="355">54 歸妹</text>
    <text x="290" y="355">55 豐</text>
    <text x="370" y="355">51 震</text>
    <text x="450" y="355">32 恆</text>
    <text x="530" y="355">40 解</text>
    <text x="610" y="355">62 小過</text>
    <text x="690" y="355">16 豫</text>

    <!-- Row 5 -->
    <text x="130" y="425">9 小畜</text>
    <text x="210" y="425">61 中孚</text>
    <text x="290" y="425">37 家人</text>
    <text x="370" y="425">42 益</text>
    <text x="450" y="425">57 巽</text>
    <text x="530" y="425">59 渙</text>
    <text x="610" y="425">53 漸</text>
    <text x="690" y="425">20 觀</text>

    <!-- Row 6 -->
    <text x="130" y="495">5 需</text>
    <text x="210" y="495">60 節</text>
    <text x="290" y="495">63 既濟</text>
    <text x="370" y="495">3 屯</text>
    <text x="450" y="495">48 井</text>
    <text x="530" y="495">29 坎</text>
    <text x="610" y="495">39 蹇</text>
    <text x="690" y="495">8 比</text>

    <!-- Row 7 -->
    <text x="130" y="565">26 大畜</text>
    <text x="210" y="565">41 損</text>
    <text x="290" y="565">22 賁</text>
    <text x="370" y="565">27 頤</text>
    <text x="450" y="565">18 蠱</text>
    <text x="530" y="565">4 蒙</text>
    <text x="610" y="565">52 艮</text>
    <text x="690" y="565">23 剝</text>

    <!-- Row 8 (Best row - 坤 as lower) -->
    <text x="130" y="635">11 泰</text>
    <text x="210" y="635">19 臨</text>
    <text x="290" y="635">36 明夷</text>
    <text x="370" y="635">24 復</text>
    <text x="450" y="635">46 升</text>
    <text x="530" y="635">7 師</text>
    <text x="610" y="635">15 謙</text>
    <text x="690" y="635">2 坤</text>
  </g>

  <!-- Legend -->
  <g transform="translate(95, 670)">
    <rect x="0" y="0" width="15" height="15" fill="#c8e6c9" stroke="#4caf50"/>
    <text x="20" y="12" font-size="10" fill="#333">最佳 Best</text>

    <rect x="100" y="0" width="15" height="15" fill="#e8f5e9" stroke="#4caf50"/>
    <text x="120" y="12" font-size="10" fill="#333">吉 Auspicious</text>

    <rect x="220" y="0" width="15" height="15" fill="#fff3e0" stroke="#ff9800"/>
    <text x="240" y="12" font-size="10" fill="#333">中 Neutral</text>

    <rect x="320" y="0" width="15" height="15" fill="#ffebee" stroke="#f44336"/>
    <text x="340" y="12" font-size="10" fill="#333">凶 Inauspicious</text>
  </g>
</svg>