<svg xmlns="http://www.w3.org/2000/svg" viewBox="0 0 600 650" font-family="Arial, sans-serif">
  <!-- Background -->
  <rect width="600" height="650" fill="#fafafa"/>

  <!-- Title -->
  <text x="300" y="30" text-anchor="middle" font-size="18" font-weight="bold" fill="#333">64卦 8×8 網格</text>
  <text x="300" y="50" text-anchor="middle" font-size="12" fill="#666">上卦 (外在環境) →</text>

  <!-- Column headers -->
  <text x="95" y="75" text-anchor="middle" font-size="11" fill="#333">坤</text>
  <text x="155" y="75" text-anchor="middle" font-size="11" fill="#333">艮</text>
  <text x="215" y="75" text-anchor="middle" font-size="11" fill="#333">坎</text>
  <text x="275" y="75" text-anchor="middle" font-size="11" fill="#333">巽</text>
  <text x="335" y="75" text-anchor="middle" font-size="11" fill="#333">震</text>
  <text x="395" y="75" text-anchor="middle" font-size="11" fill="#333">離</text>
  <text x="455" y="75" text-anchor="middle" font-size="11" fill="#333">兌</text>
  <text x="515" y="75" text-anchor="middle" font-size="11" fill="#333">乾</text>

  <!-- Binary column headers -->
  <text x="95" y="90" text-anchor="middle" font-size="9" fill="#999">000</text>
  <text x="155" y="90" text-anchor="middle" font-size="9" fill="#999">001</text>
  <text x="215" y="90" text-anchor="middle" font-size="9" fill="#999">010</text>
  <text x="275" y="90" text-anchor="middle" font-size="9" fill="#999">011</text>
  <text x="335" y="90" text-anchor="middle" font-size="9" fill="#999">100</text>
  <text x="395" y="90" text-anchor="middle" font-size="9" fill="#999">101</text>
  <text x="455" y="90" text-anchor="middle" font-size="9" fill="#999">110</text>
  <text x="515" y="90" text-anchor="middle" font-size="9" fill="#999">111</text>

  <!-- Row labels (left side) -->
  <text x="25" y="300" text-anchor="middle" font-size="12" fill="#666" transform="rotate(-90 25 300)">← 下卦 (內在狀態)</text>

  <!-- Row headers (right side) -->
  <text x="560" y="125" text-anchor="middle" font-size="11" fill="#333">乾 111</text>
  <text x="560" y="185" text-anchor="middle" font-size="11" fill="#333">巽 011</text>
  <text x="560" y="245" text-anchor="middle" font-size="11" fill="#333">離 101</text>
  <text x="560" y="305" text-anchor="middle" font-size="11" fill="#333">震 100</text>
  <text x="560" y="365" text-anchor="middle" font-size="11" fill="#333">兌 110</text>
  <text x="560" y="425" text-anchor="middle" font-size="11" fill="#333">坎 010</text>
  <text x="560" y="485" text-anchor="middle" font-size="11" fill="#333">艮 001</text>
  <text x="560" y="545" text-anchor="middle" font-size="11" fill="#333">坤 000</text>

  <!-- Grid -->
  <g stroke="#ccc" stroke-width="1" fill="none">
    <!-- Horizontal lines -->
    <line x1="65" y1="100" x2="545" y2="100"/>
    <line x1="65" y1="160" x2="545" y2="160"/>
    <line x1="65" y1="220" x2="545" y2="220"/>
    <line x1="65" y1="280" x2="545" y2="280"/>
    <line x1="65" y1="340" x2="545" y2="340"/>
    <line x1="65" y1="400" x2="545" y2="400"/>
    <line x1="65" y1="460" x2="545" y2="460"/>
    <line x1="65" y1="520" x2="545" y2="520"/>
    <line x1="65" y1="580" x2="545" y2="580"/>
    <!-- Vertical lines -->
    <line x1="65" y1="100" x2="65" y2="580"/>
    <line x1="125" y1="100" x2="125" y2="580"/>
    <line x1="185" y1="100" x2="185" y2="580"/>
    <line x1="245" y1="100" x2="245" y2="580"/>
    <line x1="305" y1="100" x2="305" y2="580"/>
    <line x1="365" y1="100" x2="365" y2="580"/>
    <line x1="425" y1="100" x2="425" y2="580"/>
    <line x1="485" y1="100" x2="485" y2="580"/>
    <line x1="545" y1="100" x2="545" y2="580"/>
  </g>

  <!-- Highlight diagonal (pure hexagrams) -->
  <g fill="#e8f5e9" opacity="0.5">
    <rect x="65" y="520" width="60" height="60"/>
    <rect x="125" y="460" width="60" height="60"/>
    <rect x="185" y="400" width="60" height="60"/>
    <rect x="245" y="280" width="60" height="60"/>
    <rect x="305" y="340" width="60" height="60"/>
    <rect x="365" y="220" width="60" height="60"/>
    <rect x="425" y="160" width="60" height="60"/>
    <rect x="485" y="100" width="60" height="60"/>
  </g>

  <!-- Highlight best area (謙卦 region) -->
  <rect x="65" y="460" width="60" height="60" fill="#fff3e0" opacity="0.7"/>

  <!-- Cell values - Row 7 (乾 as lower) -->
  <text x="95" y="135" text-anchor="middle" font-size="12" fill="#333">2</text>
  <text x="155" y="135" text-anchor="middle" font-size="12" fill="#333">23</text>
  <text x="215" y="135" text-anchor="middle" font-size="12" fill="#333">8</text>
  <text x="275" y="135" text-anchor="middle" font-size="12" fill="#333">20</text>
  <text x="335" y="135" text-anchor="middle" font-size="12" fill="#333">16</text>
  <text x="395" y="135" text-anchor="middle" font-size="12" fill="#333">35</text>
  <text x="455" y="135" text-anchor="middle" font-size="12" fill="#333">45</text>
  <text x="515" y="135" text-anchor="middle" font-size="12" font-weight="bold" fill="#2e7d32">1</text>

  <!-- Row 6 (巽 as lower) -->
  <text x="95" y="195" text-anchor="middle" font-size="12" fill="#333">46</text>
  <text x="155" y="195" text-anchor="middle" font-size="12" fill="#333">18</text>
  <text x="215" y="195" text-anchor="middle" font-size="12" fill="#333">48</text>
  <text x="275" y="195" text-anchor="middle" font-size="12" font-weight="bold" fill="#2e7d32">57</text>
  <text x="335" y="195" text-anchor="middle" font-size="12" fill="#333">32</text>
  <text x="395" y="195" text-anchor="middle" font-size="12" fill="#333">50</text>
  <text x="455" y="195" text-anchor="middle" font-size="12" fill="#333">28</text>
  <text x="515" y="195" text-anchor="middle" font-size="12" fill="#333">44</text>

  <!-- Row 5 (離 as lower) -->
  <text x="95" y="255" text-anchor="middle" font-size="12" fill="#333">36</text>
  <text x="155" y="255" text-anchor="middle" font-size="12" fill="#333">22</text>
  <text x="215" y="255" text-anchor="middle" font-size="12" fill="#333">63</text>
  <text x="275" y="255" text-anchor="middle" font-size="12" fill="#333">37</text>
  <text x="335" y="255" text-anchor="middle" font-size="12" fill="#333">55</text>
  <text x="395" y="255" text-anchor="middle" font-size="12" font-weight="bold" fill="#2e7d32">30</text>
  <text x="455" y="255" text-anchor="middle" font-size="12" fill="#333">49</text>
  <text x="515" y="255" text-anchor="middle" font-size="12" fill="#333">13</text>

  <!-- Row 4 (震 as lower) -->
  <text x="95" y="315" text-anchor="middle" font-size="12" fill="#333">24</text>
  <text x="155" y="315" text-anchor="middle" font-size="12" fill="#333">27</text>
  <text x="215" y="315" text-anchor="middle" font-size="12" fill="#333">3</text>
  <text x="275" y="315" text-anchor="middle" font-size="12" fill="#333">42</text>
  <text x="335" y="315" text-anchor="middle" font-size="12" font-weight="bold" fill="#2e7d32">51</text>
  <text x="395" y="315" text-anchor="middle" font-size="12" fill="#333">21</text>
  <text x="455" y="315" text-anchor="middle" font-size="12" fill="#333">17</text>
  <text x="515" y="315" text-anchor="middle" font-size="12" fill="#333">25</text>

  <!-- Row 3 (兌 as lower) -->
  <text x="95" y="375" text-anchor="middle" font-size="12" fill="#333">19</text>
  <text x="155" y="375" text-anchor="middle" font-size="12" fill="#333">41</text>
  <text x="215" y="375" text-anchor="middle" font-size="12" fill="#333">60</text>
  <text x="275" y="375" text-anchor="middle" font-size="12" fill="#333">61</text>
  <text x="335" y="375" text-anchor="middle" font-size="12" fill="#333">54</text>
  <text x="395" y="375" text-anchor="middle" font-size="12" fill="#333">38</text>
  <text x="455" y="375" text-anchor="middle" font-size="12" font-weight="bold" fill="#2e7d32">58</text>
  <text x="515" y="375" text-anchor="middle" font-size="12" fill="#333">10</text>

  <!-- Row 2 (坎 as lower) -->
  <text x="95" y="435" text-anchor="middle" font-size="12" fill="#333">7</text>
  <text x="155" y="435" text-anchor="middle" font-size="12" fill="#333">4</text>
  <text x="215" y="435" text-anchor="middle" font-size="12" font-weight="bold" fill="#2e7d32">29</text>
  <text x="275" y="435" text-anchor="middle" font-size="12" fill="#333">59</text>
  <text x="335" y="435" text-anchor="middle" font-size="12" fill="#333">40</text>
  <text x="395" y="435" text-anchor="middle" font-size="12" fill="#333">64</text>
  <text x="455" y="435" text-anchor="middle" font-size="12" fill="#333">47</text>
  <text x="515" y="435" text-anchor="middle" font-size="12" fill="#333">6</text>

  <!-- Row 1 (艮 as lower) -->
  <text x="95" y="495" text-anchor="middle" font-size="12" font-weight="bold" fill="#e65100">15</text>
  <text x="155" y="495" text-anchor="middle" font-size="12" font-weight="bold" fill="#2e7d32">52</text>
  <text x="215" y="495" text-anchor="middle" font-size="12" fill="#333">39</text>
  <text x="275" y="495" text-anchor="middle" font-size="12" fill="#333">53</text>
  <text x="335" y="495" text-anchor="middle" font-size="12" fill="#333">62</text>
  <text x="395" y="495" text-anchor="middle" font-size="12" fill="#333">56</text>
  <text x="455" y="495" text-anchor="middle" font-size="12" fill="#333">31</text>
  <text x="515" y="495" text-anchor="middle" font-size="12" fill="#333">33</text>

  <!-- Row 0 (坤 as lower) -->
  <text x="95" y="555" text-anchor="middle" font-size="12" font-weight="bold" fill="#2e7d32">2</text>
  <text x="155" y="555" text-anchor="middle" font-size="12" fill="#333">23</text>
  <text x="215" y="555" text-anchor="middle" font-size="12" fill="#333">8</text>
  <text x="275" y="555" text-anchor="middle" font-size="12" fill="#333">20</text>
  <text x="335" y="555" text-anchor="middle" font-size="12" fill="#333">16</text>
  <text x="395" y="555" text-anchor="middle" font-size="12" fill="#333">35</text>
  <text x="455" y="555" text-anchor="middle" font-size="12" fill="#333">45</text>
  <text x="515" y="555" text-anchor="middle" font-size="12" fill="#333">11</text>

  <!-- Legend -->
  <rect x="65" y="600" width="20" height="15" fill="#e8f5e9"/>
  <text x="90" y="612" font-size="10" fill="#333">純卦 (對角線)</text>
  <rect x="200" y="600" width="20" height="15" fill="#fff3e0"/>
  <text x="225" y="612" font-size="10" fill="#333">謙卦 (15) - 六爻皆吉</text>
  <text x="400" y="612" font-size="10" fill="#e65100" font-weight="bold">15</text>
  <text x="415" y="612" font-size="10" fill="#333">= 最佳卦</text>
</svg>