<?xml version="1.0" encoding="utf-8" standalone="no"?>
<!DOCTYPE svg PUBLIC "-//W3C//DTD SVG 1.1//EN"
  "http://www.w3.org/Graphics/SVG/1.1/DTD/svg11.dtd">
<svg xmlns:xlink="http://www.w3.org/1999/xlink" width="701.65775pt" height="735.21pt" viewBox="0 0 701.65775 735.21" xmlns="http://www.w3.org/2000/svg" version="1.1">
 <metadata>
  <rdf:RDF xmlns:dc="http://purl.org/dc/elements/1.1/" xmlns:cc="http://creativecommons.org/ns#" xmlns:rdf="http://www.w3.org/1999/02/22-rdf-syntax-ns#">
   <cc:Work>
    <dc:type rdf:resource="http://purl.org/dc/dcmitype/StillImage"/>
    <dc:date>2026-01-21T19:27:34.407023</dc:date>
    <dc:format>image/svg+xml</dc:format>
    <dc:creator>
     <cc:Agent>
      <dc:title>Matplotlib v3.10.8, https://matplotlib.org/</dc:title>
     </cc:Agent>
    </dc:creator>
   </cc:Work>
  </rdf:RDF>
 </metadata>
 <defs>
  <style type="text/css">*{stroke-linejoin: round; stroke-linecap: butt}</style>
 </defs>
 <g id="figure_1">
  <g id="patch_1">
   <path d="M 0 735.21 
L 701.65775 735.21 
L 701.65775 0 
L 0 0 
z
" style="fill: #ffffff"/>
  </g>
  <g id="axes_1">
   <g id="patch_2">
    <path d="M 109.79575 413.192 
L 379.63975 413.192 
L 379.63975 143.348 
L 109.79575 143.348 
z
" clip-path="url(#pcdb920fbd6)" style="fill: #90ee90; stroke: #000000; stroke-width: 2; stroke-linejoin: miter"/>
   </g>
   <g id="patch_3">
    <path d="M 390.88325 413.192 
L 660.72725 413.192 
L 660.72725 143.348 
L 390.88325 143.348 
z
" clip-path="url(#pcdb920fbd6)" style="fill: #228b22; stroke: #000000; stroke-width: 2; stroke-linejoin: miter"/>
   </g>
   <g id="patch_4">
    <path d="M 109.79575 694.2795 
L 379.63975 694.2795 
L 379.63975 424.4355 
L 109.79575 424.4355 
z
" clip-path="url(#pcdb920fbd6)" style="fill: #ff6b6b; stroke: #000000; stroke-width: 2; stroke-linejoin: miter"/>
   </g>
   <g id="patch_5">
    <path d="M 390.88325 694.2795 
L 660.72725 694.2795 
L 660.72725 424.4355 
L 390.88325 424.4355 
z
" clip-path="url(#pcdb920fbd6)" style="fill: #ffb347; stroke: #000000; stroke-width: 2; stroke-linejoin: miter"/>
   </g>
   <g id="line2d_1">
    <path d="M 19.84775 418.81375 
L 694.45775 418.81375 
" clip-path="url(#pcdb920fbd6)" style="fill: none; stroke: #000000; stroke-width: 2; stroke-linecap: square"/>
   </g>
   <g id="line2d_2">
    <path d="M 385.2615 728.01 
L 385.2615 53.4 
" clip-path="url(#pcdb920fbd6)" style="fill: none; stroke: #000000; stroke-width: 2; stroke-linecap: square"/>
   </g>
   <g id="text_1">
    <!-- 穩健 -->
    <g transform="translate(226.71775 216.902281) scale(0.18 -0.18)">
     <defs>
      <path id="STHeitiTC-Medium-7a69" d="M 5466 38 
Q 5395 -198 5273 -320 
Q 5152 -442 4915 -486 
Q 4851 -499 4710 -505 
Q 4570 -512 4410 -512 
Q 4250 -512 4096 -509 
Q 3942 -506 3846 -493 
Q 3674 -474 3565 -442 
Q 3456 -410 3398 -349 
Q 3341 -288 3321 -195 
Q 3302 -102 3302 45 
L 3302 301 
Q 3302 480 3296 560 
Q 3290 640 3277 723 
Q 3571 666 3757 691 
Q 3814 704 3833 672 
Q 3853 640 3802 602 
Q 3750 557 3750 474 
L 3750 186 
Q 3750 83 3772 19 
Q 3795 -45 3862 -80 
Q 3930 -115 4058 -128 
Q 4186 -141 4390 -141 
Q 4576 -141 4694 -125 
Q 4813 -109 4883 -54 
Q 4954 0 4986 96 
Q 5018 192 5037 346 
Q 5107 237 5212 166 
Q 5318 96 5466 38 
z
M 3008 595 
Q 2925 352 2835 121 
Q 2746 -109 2618 -371 
L 2163 -198 
Q 2246 -64 2310 41 
Q 2374 147 2422 252 
Q 2470 358 2505 467 
Q 2541 576 2573 717 
L 3008 595 
z
M 5747 -314 
Q 5638 -70 5513 141 
Q 5389 352 5222 557 
L 5613 781 
Q 5760 576 5894 365 
Q 6029 154 6150 -64 
L 5747 -314 
z
M 4256 115 
Q 4224 307 4182 444 
Q 4141 582 4051 749 
L 4435 870 
Q 4531 698 4585 563 
Q 4640 429 4685 262 
L 4256 115 
z
M 2150 1370 
Q 2131 1504 2108 1606 
Q 2086 1709 2048 1821 
Q 2010 1933 1955 2061 
Q 1901 2189 1811 2374 
L 2195 2528 
Q 2323 2266 2412 2035 
Q 2502 1805 2592 1517 
L 2150 1370 
z
M 4058 3693 
Q 4032 3866 4006 3971 
Q 3981 4077 3930 4186 
L 4410 4301 
Q 4454 4173 4483 4054 
Q 4512 3936 4525 3789 
L 4058 3693 
z
M 5862 4640 
Q 5933 4570 5913 4531 
Q 5894 4493 5811 4512 
Q 5792 4518 5744 4518 
Q 5696 4518 5603 4512 
Q 5510 4506 5360 4490 
Q 5210 4474 4986 4448 
Q 4826 4429 4557 4406 
Q 4288 4384 3977 4361 
Q 3667 4339 3353 4320 
Q 3040 4301 2803 4294 
Q 2714 4550 2586 4755 
Q 2848 4730 3222 4736 
Q 3597 4742 4147 4781 
Q 4365 4794 4576 4822 
Q 4787 4851 4972 4886 
Q 5158 4922 5312 4966 
Q 5466 5011 5568 5056 
Q 5619 4947 5676 4860 
Q 5734 4774 5862 4640 
z
M 1280 2963 
Q 1190 2963 1084 2960 
Q 979 2957 867 2950 
Q 755 2944 656 2934 
Q 557 2925 480 2918 
L 480 3392 
Q 557 3386 659 3379 
Q 762 3373 870 3366 
Q 979 3360 1088 3357 
Q 1197 3354 1286 3354 
L 1286 4166 
Q 1082 4122 922 4096 
Q 762 4070 634 4058 
Q 589 4186 550 4278 
Q 512 4371 448 4480 
Q 582 4480 688 4486 
Q 794 4493 890 4509 
Q 986 4525 1088 4547 
Q 1190 4570 1318 4602 
Q 1478 4640 1593 4675 
Q 1709 4710 1805 4748 
Q 1901 4787 1987 4828 
Q 2074 4870 2170 4928 
Q 2240 4832 2326 4726 
Q 2413 4621 2490 4550 
Q 2579 4474 2563 4429 
Q 2547 4384 2458 4397 
Q 2426 4403 2374 4396 
Q 2323 4390 2240 4377 
Q 2157 4365 2038 4336 
Q 1920 4307 1747 4269 
L 1747 3354 
Q 2163 3354 2426 3392 
L 2426 2918 
Q 2163 2957 1747 2957 
L 1747 499 
Q 1747 262 1760 -26 
Q 1773 -314 1798 -602 
L 1235 -602 
Q 1261 -314 1273 -26 
Q 1286 262 1286 499 
L 1286 1984 
Q 1178 1645 1034 1353 
Q 890 1062 666 710 
Q 582 806 486 886 
Q 390 966 250 1043 
Q 595 1472 857 1949 
Q 1120 2426 1280 2963 
z
M 4851 3642 
Q 4934 3770 5017 3955 
Q 5101 4141 5197 4422 
Q 5325 4352 5417 4320 
Q 5510 4288 5664 4243 
Q 5728 4224 5725 4185 
Q 5722 4147 5638 4102 
Q 5562 4064 5306 3642 
Q 5651 3642 5952 3680 
L 5952 3270 
Q 5677 3290 5318 3302 
Q 4960 3315 4454 3315 
L 4454 2976 
Q 5011 2976 5401 2985 
Q 5792 2995 6099 3008 
L 6099 2618 
Q 5773 2630 5353 2640 
Q 4934 2650 4320 2650 
Q 3706 2650 3290 2640 
Q 2874 2630 2547 2618 
L 2547 3008 
Q 2835 2995 3184 2985 
Q 3533 2976 4019 2976 
L 4019 3315 
Q 3866 3315 3680 3312 
Q 3494 3309 3308 3302 
Q 3123 3296 2950 3286 
Q 2778 3277 2650 3270 
L 2650 3680 
Q 2758 3667 2854 3664 
Q 2950 3661 3040 3654 
Q 3002 3910 2874 4096 
L 3366 4224 
Q 3418 4134 3466 3996 
Q 3514 3859 3539 3750 
L 3085 3648 
Q 3187 3648 3283 3645 
Q 3379 3642 3475 3642 
L 4851 3642 
z
M 3443 1542 
Q 2931 1542 2637 1523 
L 2637 1901 
Q 2797 1882 2995 1869 
Q 3194 1856 3462 1856 
L 5210 1856 
L 5210 2106 
L 3501 2106 
Q 3328 2106 3219 2106 
Q 3110 2106 3033 2106 
Q 2957 2106 2902 2102 
Q 2848 2099 2784 2099 
L 2784 2458 
Q 2886 2451 3014 2444 
Q 3142 2438 3312 2435 
Q 3482 2432 3706 2432 
Q 3930 2432 4224 2432 
Q 4742 2432 5110 2438 
Q 5478 2445 5658 2458 
Q 5651 2355 5648 2220 
Q 5645 2086 5645 1862 
Q 5907 1862 6112 1901 
L 6112 1523 
Q 5920 1542 5645 1542 
Q 5645 1395 5651 1225 
Q 5658 1056 5670 947 
Q 5613 954 5526 957 
Q 5440 960 5283 960 
Q 5126 960 4873 960 
Q 4621 960 4230 960 
Q 3840 960 3593 960 
Q 3347 960 3190 957 
Q 3034 954 2934 950 
Q 2835 947 2739 941 
L 2739 1318 
Q 2906 1306 3066 1299 
Q 3226 1293 3456 1293 
L 5210 1293 
L 5210 1542 
L 3443 1542 
z
" transform="scale(0.015625)"/>
      <path id="STHeitiTC-Medium-5065" d="M 1043 2950 
Q 922 2675 829 2486 
Q 736 2298 640 2118 
Q 499 2374 307 2560 
Q 397 2669 470 2771 
Q 544 2874 611 2992 
Q 678 3110 742 3251 
Q 806 3392 877 3571 
Q 922 3693 979 3885 
Q 1037 4077 1085 4281 
Q 1133 4486 1171 4681 
Q 1210 4877 1222 5005 
Q 1370 4941 1485 4899 
Q 1600 4858 1760 4826 
Q 1862 4806 1872 4774 
Q 1882 4742 1805 4685 
Q 1792 4672 1773 4646 
Q 1754 4621 1718 4544 
Q 1683 4467 1622 4329 
Q 1562 4192 1466 3962 
L 1466 -640 
L 979 -640 
Q 1011 -320 1027 -35 
Q 1043 250 1043 595 
L 1043 2950 
z
M 5158 3654 
L 5158 4147 
L 4544 4147 
L 4544 3654 
L 5158 3654 
z
M 4544 3296 
L 4544 2784 
L 5158 2784 
L 5158 3296 
L 4544 3296 
z
M 4544 1914 
Q 4787 1914 4956 1917 
Q 5126 1920 5257 1926 
Q 5389 1933 5497 1942 
Q 5606 1952 5734 1965 
L 5734 1517 
Q 5613 1530 5504 1539 
Q 5395 1549 5264 1552 
Q 5133 1555 4960 1558 
Q 4787 1562 4544 1562 
L 4544 1062 
Q 4998 1062 5286 1072 
Q 5574 1082 5805 1114 
L 5805 666 
Q 5581 691 5293 700 
Q 5005 710 4544 710 
Q 4550 563 4560 412 
Q 4570 262 4582 90 
L 4109 90 
Q 4122 256 4128 406 
Q 4134 557 4141 710 
Q 3834 704 3626 697 
Q 3418 691 3245 666 
L 3245 1114 
Q 3418 1088 3629 1078 
Q 3840 1069 4141 1062 
L 4141 1562 
Q 3853 1555 3680 1548 
Q 3507 1542 3328 1517 
L 3328 1965 
Q 3424 1952 3507 1942 
Q 3590 1933 3683 1929 
Q 3776 1926 3885 1920 
Q 3994 1914 4141 1914 
L 4141 2438 
Q 3853 2438 3673 2428 
Q 3494 2419 3360 2406 
L 3360 2816 
Q 3494 2803 3673 2796 
Q 3853 2790 4141 2784 
L 4141 3296 
Q 3802 3296 3584 3283 
Q 3366 3270 3155 3251 
L 3155 3693 
Q 3366 3674 3584 3664 
Q 3802 3654 4141 3654 
L 4141 4147 
Q 4006 4147 3910 4147 
Q 3814 4147 3728 4140 
Q 3642 4134 3558 4128 
Q 3475 4122 3373 4115 
L 3373 4538 
Q 3469 4531 3545 4524 
Q 3622 4518 3708 4515 
Q 3795 4512 3897 4509 
Q 4000 4506 4141 4506 
Q 4134 4730 4124 4902 
Q 4115 5075 4096 5165 
Q 4237 5146 4342 5139 
Q 4448 5133 4589 5133 
Q 4858 5133 4634 5005 
Q 4589 4979 4566 4908 
Q 4544 4838 4544 4762 
L 4544 4506 
Q 4762 4506 4918 4509 
Q 5075 4512 5196 4518 
Q 5318 4525 5417 4534 
Q 5517 4544 5619 4563 
Q 5606 4467 5603 4387 
Q 5600 4307 5600 4198 
L 5600 3654 
Q 5939 3654 6093 3693 
L 6093 3264 
Q 6016 3277 5891 3283 
Q 5766 3290 5600 3296 
L 5600 2938 
Q 5600 2790 5606 2668 
Q 5613 2547 5626 2419 
Q 5549 2426 5462 2429 
Q 5376 2432 5251 2435 
Q 5126 2438 4956 2438 
Q 4787 2438 4544 2438 
L 4544 1914 
z
M 2438 1088 
Q 2522 1357 2566 1673 
Q 2611 1990 2624 2394 
Q 2413 2387 2281 2364 
Q 2150 2342 1971 2291 
Q 1958 2400 1929 2477 
Q 1901 2554 1850 2643 
Q 1971 2682 2041 2749 
Q 2112 2816 2150 2950 
L 2522 4122 
Q 2342 4122 2217 4115 
Q 2093 4109 1984 4096 
L 1984 4518 
Q 2208 4506 2499 4502 
Q 2790 4499 3059 4518 
Q 2938 4090 2800 3635 
Q 2662 3181 2515 2771 
Q 2701 2784 2825 2793 
Q 2950 2803 3059 2816 
Q 3040 2426 3017 2112 
Q 2995 1798 2956 1539 
Q 2918 1280 2864 1069 
Q 2810 858 2726 666 
Q 2906 474 3178 323 
Q 3450 173 3840 89 
Q 4230 6 4758 -3 
Q 5286 -13 5978 64 
Q 5907 -96 5875 -227 
Q 5843 -358 5830 -474 
Q 5075 -499 4528 -454 
Q 3981 -410 3593 -310 
Q 3206 -211 2950 -57 
Q 2694 96 2522 282 
Q 2419 115 2291 -45 
Q 2163 -205 1997 -390 
Q 1830 -237 1574 -134 
Q 1798 51 1964 236 
Q 2131 422 2246 640 
Q 2067 928 1945 1232 
Q 1824 1536 1773 1843 
L 2170 1926 
Q 2202 1702 2266 1494 
Q 2330 1286 2438 1088 
z
" transform="scale(0.015625)"/>
     </defs>
     <use xlink:href="#STHeitiTC-Medium-7a69"/>
     <use xlink:href="#STHeitiTC-Medium-5065" transform="translate(99.999985 0)"/>
    </g>
   </g>
   <g id="text_2">
    <!-- 33.3% 吉 -->
    <g transform="translate(213.004 295.20225) scale(0.16 -0.16)">
     <defs>
      <path id="STHeitiTC-Medium-33" d="M 2554 3021 
Q 2931 2835 3139 2508 
Q 3347 2182 3347 1798 
Q 3347 1171 2889 720 
Q 2432 269 1734 269 
Q 1107 269 707 630 
Q 307 992 166 1702 
L 710 1702 
Q 832 1248 1072 1027 
Q 1312 806 1757 806 
Q 2202 806 2502 1084 
Q 2803 1363 2803 1785 
Q 2803 2208 2460 2457 
Q 2118 2707 1453 2720 
L 1453 3232 
Q 1933 3232 2227 3437 
Q 2522 3642 2522 3946 
Q 2522 4250 2294 4451 
Q 2067 4653 1744 4653 
Q 1421 4653 1219 4470 
Q 1018 4288 877 3917 
L 320 3917 
Q 461 4531 832 4857 
Q 1203 5184 1747 5184 
Q 2291 5184 2691 4825 
Q 3091 4467 3091 3955 
Q 3091 3366 2554 3021 
z
" transform="scale(0.015625)"/>
      <path id="STHeitiTC-Medium-2e" d="M 966 1478 
Q 1146 1478 1270 1353 
Q 1395 1229 1395 1046 
Q 1395 864 1270 739 
Q 1146 614 970 614 
Q 794 614 666 742 
Q 538 870 538 1049 
Q 538 1229 666 1353 
Q 794 1478 966 1478 
z
" transform="scale(0.015625)"/>
      <path id="STHeitiTC-Medium-25" d="M 4397 5594 
L 992 384 
L 467 384 
L 3501 5024 
Q 3021 4915 2278 4915 
L 2202 4915 
Q 2349 4666 2349 4397 
Q 2349 3917 2025 3581 
Q 1702 3245 1225 3245 
Q 749 3245 422 3571 
Q 96 3898 96 4374 
Q 96 4851 432 5174 
Q 768 5498 1210 5498 
Q 1382 5498 1702 5430 
Q 2022 5363 2490 5363 
Q 3232 5363 3942 5594 
L 4397 5594 
z
M 1222 3738 
Q 1491 3738 1680 3923 
Q 1869 4109 1869 4377 
Q 1869 4646 1680 4832 
Q 1491 5018 1225 5018 
Q 960 5018 771 4829 
Q 582 4640 582 4377 
Q 582 4115 771 3926 
Q 960 3738 1222 3738 
z
M 3731 2822 
Q 4198 2822 4528 2492 
Q 4858 2163 4858 1696 
Q 4858 1229 4528 899 
Q 4198 570 3734 570 
Q 3270 570 2940 899 
Q 2611 1229 2611 1693 
Q 2611 2157 2940 2489 
Q 3270 2822 3731 2822 
z
M 3731 1056 
Q 4000 1056 4189 1241 
Q 4378 1427 4378 1692 
Q 4378 1958 4189 2147 
Q 4000 2336 3734 2336 
Q 3469 2336 3283 2147 
Q 3098 1958 3098 1696 
Q 3098 1434 3283 1245 
Q 3469 1056 3731 1056 
z
" transform="scale(0.015625)"/>
      <path id="STHeitiTC-Medium-20" transform="scale(0.015625)"/>
      <path id="STHeitiTC-Medium-5409" d="M 1760 -211 
L 1760 -659 
L 1165 -659 
Q 1197 -416 1209 -192 
Q 1222 32 1222 224 
L 1222 1005 
Q 1222 1088 1219 1197 
Q 1216 1306 1209 1414 
Q 1203 1523 1193 1619 
Q 1184 1715 1178 1779 
Q 1523 1754 2000 1744 
Q 2477 1734 3181 1734 
Q 3526 1734 3811 1737 
Q 4096 1741 4336 1744 
Q 4576 1747 4781 1756 
Q 4986 1766 5171 1779 
Q 5158 1715 5148 1622 
Q 5139 1530 5132 1424 
Q 5126 1318 5126 1209 
Q 5126 1101 5126 1005 
L 5126 346 
Q 5126 147 5139 -99 
Q 5152 -346 5178 -602 
L 4589 -602 
L 4589 -211 
L 1760 -211 
z
M 4589 237 
L 4589 1293 
L 1760 1293 
L 1760 237 
L 4589 237 
z
M 3462 2906 
Q 4128 2912 4608 2925 
Q 5088 2938 5453 2970 
L 5453 2394 
Q 5050 2419 4512 2435 
Q 3974 2451 3206 2451 
Q 2451 2451 1913 2438 
Q 1376 2426 966 2394 
L 966 2970 
Q 1344 2938 1811 2925 
Q 2278 2912 2918 2906 
L 2918 3770 
Q 2118 3763 1523 3753 
Q 928 3744 486 3712 
L 486 4301 
Q 934 4269 1526 4256 
Q 2118 4243 2918 4237 
Q 2912 4614 2899 4844 
Q 2886 5075 2874 5178 
Q 3014 5146 3190 5139 
Q 3366 5133 3475 5146 
Q 3584 5158 3590 5120 
Q 3597 5082 3507 5030 
Q 3462 5005 3462 4890 
L 3462 4237 
Q 4262 4237 4864 4253 
Q 5466 4269 5907 4301 
L 5907 3712 
Q 5466 3744 4864 3757 
Q 4262 3770 3462 3770 
L 3462 2906 
z
" transform="scale(0.015625)"/>
     </defs>
     <use xlink:href="#STHeitiTC-Medium-33"/>
     <use xlink:href="#STHeitiTC-Medium-33" transform="translate(55.399994 0)"/>
     <use xlink:href="#STHeitiTC-Medium-2e" transform="translate(110.799988 0)"/>
     <use xlink:href="#STHeitiTC-Medium-33" transform="translate(138.499985 0)"/>
     <use xlink:href="#STHeitiTC-Medium-25" transform="translate(193.899979 0)"/>
     <use xlink:href="#STHeitiTC-Medium-20" transform="translate(271.399963 0)"/>
     <use xlink:href="#STHeitiTC-Medium-5409" transform="translate(296.399948 0)"/>
    </g>
   </g>
   <g id="text_3">
    <!-- 內強外弱 -->
    <g style="fill: #333333" transform="translate(220.71775 366.658438) scale(0.12 -0.12)">
     <defs>
      <path id="STHeitiTC-Medium-5167" d="M 1446 3482 
L 1446 -525 
L 864 -525 
Q 896 -314 909 -96 
Q 922 122 922 422 
L 922 3066 
Q 922 3373 909 3600 
Q 896 3827 870 4013 
Q 1062 3994 1254 3981 
Q 1446 3968 1686 3961 
Q 1926 3955 2249 3955 
Q 2573 3955 3034 3955 
Q 3021 4096 3001 4243 
Q 2982 4390 2970 4550 
L 2227 4550 
Q 1933 4550 1747 4540 
Q 1562 4531 1376 4512 
L 1376 5018 
Q 1472 5005 1561 4995 
Q 1651 4986 1753 4982 
Q 1856 4979 1984 4976 
Q 2112 4973 2278 4973 
Q 2419 4973 2595 4976 
Q 2771 4979 2940 4985 
Q 3110 4992 3241 5001 
Q 3373 5011 3424 5018 
Q 3418 4723 3430 4460 
Q 3443 4198 3469 3955 
Q 3962 3955 4278 3958 
Q 4595 3962 4812 3968 
Q 5030 3974 5190 3984 
Q 5350 3994 5536 4013 
Q 5517 3846 5504 3590 
Q 5491 3334 5491 3066 
L 5491 77 
Q 5491 -102 5459 -224 
Q 5427 -346 5312 -432 
Q 5197 -518 4976 -572 
Q 4755 -627 4384 -672 
Q 4378 -525 4317 -368 
Q 4256 -211 4128 -51 
Q 4384 -77 4544 -67 
Q 4704 -58 4797 -16 
Q 4890 26 4922 96 
Q 4954 166 4954 262 
L 4954 3482 
L 3526 3482 
Q 3661 2675 3981 2144 
Q 4301 1613 4851 1274 
Q 4723 1222 4592 1097 
Q 4461 973 4378 806 
Q 4160 1005 3987 1206 
Q 3814 1408 3676 1635 
Q 3539 1862 3433 2128 
Q 3328 2394 3245 2726 
Q 3072 2208 2745 1728 
Q 2419 1248 1939 781 
Q 1869 922 1741 1037 
Q 1613 1152 1472 1222 
Q 1747 1427 1996 1676 
Q 2246 1926 2451 2211 
Q 2656 2496 2803 2816 
Q 2950 3136 3021 3482 
L 1446 3482 
z
" transform="scale(0.015625)"/>
      <path id="STHeitiTC-Medium-5f37" d="M 3776 2208 
L 2976 2208 
L 2976 1299 
L 3776 1299 
L 3776 2208 
z
M 4262 1299 
L 5050 1299 
L 5050 2208 
L 4262 2208 
L 4262 1299 
z
M 4262 2598 
Q 4570 2598 4784 2598 
Q 4998 2598 5145 2601 
Q 5293 2605 5382 2611 
Q 5472 2618 5530 2624 
Q 5523 2534 5523 2425 
Q 5523 2317 5523 2144 
L 5523 1344 
Q 5523 1248 5523 1126 
Q 5523 1005 5536 870 
Q 5350 877 5164 883 
Q 4979 890 4809 896 
Q 4640 902 4496 905 
Q 4352 909 4262 909 
L 4262 109 
Q 4506 122 4736 138 
Q 4966 154 5152 173 
Q 5101 275 5049 361 
Q 4998 448 4947 518 
L 5395 666 
Q 5446 563 5516 425 
Q 5587 288 5670 141 
Q 5754 -6 5834 -147 
Q 5914 -288 5984 -403 
L 5478 -627 
Q 5421 -435 5325 -205 
Q 4986 -224 4570 -253 
Q 4154 -282 3741 -317 
Q 3328 -352 2957 -387 
Q 2586 -422 2336 -454 
Q 2323 -301 2300 -163 
Q 2278 -26 2246 109 
Q 2541 90 2944 86 
Q 3347 83 3776 96 
L 3776 909 
Q 3552 909 3379 905 
Q 3206 902 3059 899 
Q 2912 896 2774 886 
Q 2637 877 2490 870 
Q 2502 1037 2502 1139 
Q 2502 1242 2502 1350 
L 2502 2144 
Q 2502 2310 2502 2412 
Q 2502 2515 2490 2624 
Q 2624 2611 2915 2604 
Q 3206 2598 3776 2598 
L 3776 3149 
Q 3494 3130 3292 3114 
Q 3091 3098 2947 3078 
Q 2803 3059 2710 3043 
Q 2618 3027 2560 3008 
Q 2541 3130 2461 3290 
Q 2381 3450 2310 3546 
L 2810 3558 
Q 2950 3757 3072 3939 
Q 3194 4122 3296 4307 
Q 3398 4493 3491 4691 
Q 3584 4890 3674 5114 
Q 3840 5043 4000 4995 
Q 4160 4947 4294 4922 
Q 4429 4902 4429 4864 
Q 4429 4826 4294 4787 
Q 4224 4768 4144 4694 
Q 4064 4621 3936 4435 
Q 3853 4320 3782 4224 
Q 3712 4128 3638 4029 
Q 3565 3930 3481 3818 
Q 3398 3706 3283 3565 
L 4864 3597 
Q 4730 3782 4598 3948 
Q 4467 4115 4371 4211 
L 4774 4467 
Q 4915 4294 5062 4112 
Q 5210 3930 5347 3750 
Q 5485 3571 5606 3401 
Q 5728 3232 5824 3085 
L 5331 2861 
Q 5293 2976 5126 3219 
Q 4883 3206 4665 3196 
Q 4448 3187 4262 3174 
L 4262 2598 
z
M 2221 4710 
Q 2170 4410 2144 3958 
Q 2118 3507 2118 2854 
Q 2029 2867 1917 2873 
Q 1805 2880 1670 2880 
L 934 2880 
L 877 2035 
L 1677 2035 
Q 1805 2035 1923 2038 
Q 2042 2042 2112 2054 
Q 2080 1920 2045 1545 
Q 2010 1171 1978 634 
Q 1958 269 1913 45 
Q 1869 -179 1750 -313 
Q 1632 -448 1401 -509 
Q 1171 -570 774 -602 
Q 762 -480 707 -329 
Q 653 -179 506 32 
Q 870 -51 1094 -3 
Q 1318 45 1376 134 
Q 1408 192 1433 272 
Q 1459 352 1481 509 
Q 1504 666 1526 931 
Q 1549 1197 1568 1632 
L 864 1632 
Q 736 1632 624 1625 
Q 512 1619 410 1606 
Q 435 1805 454 2057 
Q 474 2310 490 2553 
Q 506 2797 512 3001 
Q 518 3206 512 3315 
Q 621 3296 720 3289 
Q 819 3283 947 3283 
L 1645 3283 
L 1664 4211 
L 973 4211 
Q 819 4211 704 4204 
Q 589 4198 454 4186 
L 454 4710 
Q 646 4685 838 4675 
Q 1030 4666 1312 4666 
Q 1574 4666 1811 4675 
Q 2048 4685 2221 4710 
z
" transform="scale(0.015625)"/>
      <path id="STHeitiTC-Medium-5916" d="M 4269 4301 
Q 4269 4602 4256 4816 
Q 4243 5030 4211 5203 
Q 4403 5165 4537 5152 
Q 4672 5139 4838 5139 
Q 5082 5139 4877 5011 
Q 4832 4979 4813 4931 
Q 4794 4883 4794 4774 
L 4794 1958 
Q 5331 1453 6163 1043 
Q 6029 922 5939 810 
Q 5850 698 5741 499 
Q 5466 704 5232 889 
Q 4998 1075 4794 1254 
L 4794 666 
Q 4794 448 4797 275 
Q 4800 102 4806 -45 
Q 4813 -192 4825 -317 
Q 4838 -442 4851 -563 
L 4211 -563 
Q 4224 -442 4237 -317 
Q 4250 -192 4256 -45 
Q 4262 102 4265 275 
Q 4269 448 4269 666 
L 4269 1760 
Q 3917 2138 3667 2550 
Q 3418 2963 3226 3520 
L 3654 3814 
Q 3763 3462 3913 3152 
Q 4064 2842 4269 2554 
L 4269 4301 
z
M 2323 1971 
Q 2432 2266 2509 2621 
Q 2586 2976 2624 3360 
L 1613 3360 
Q 1510 3085 1417 2864 
Q 1325 2643 1229 2448 
Q 1133 2253 1030 2073 
Q 928 1894 806 1702 
Q 672 1837 515 1917 
Q 358 1997 237 2010 
Q 378 2150 499 2313 
Q 621 2477 729 2675 
Q 838 2874 940 3114 
Q 1043 3354 1146 3648 
Q 1274 4006 1341 4358 
Q 1408 4710 1421 5043 
Q 1645 4979 1821 4944 
Q 1997 4909 2150 4896 
Q 2310 4877 2163 4755 
Q 2131 4730 2083 4643 
Q 2035 4557 1965 4352 
Q 1920 4224 1878 4102 
Q 1837 3981 1798 3872 
Q 2170 3872 2413 3875 
Q 2656 3878 2806 3881 
Q 2957 3885 3040 3891 
Q 3123 3898 3174 3910 
Q 3155 3546 3104 3155 
Q 3053 2765 2969 2397 
Q 2886 2029 2771 1712 
Q 2656 1395 2502 1184 
Q 2310 915 2134 704 
Q 1958 493 1776 310 
Q 1594 128 1386 -38 
Q 1178 -205 922 -384 
Q 710 -102 326 51 
Q 672 211 941 374 
Q 1210 538 1418 707 
Q 1626 877 1779 1059 
Q 1933 1242 2054 1434 
Q 1894 1702 1718 1900 
Q 1542 2099 1350 2246 
L 1760 2618 
Q 1939 2445 2073 2288 
Q 2208 2131 2323 1971 
z
" transform="scale(0.015625)"/>
      <path id="STHeitiTC-Medium-5f31" d="M 5293 883 
Q 4992 749 4717 621 
Q 4442 493 4211 384 
Q 3981 275 3801 188 
Q 3622 102 3520 45 
Q 3488 186 3430 326 
Q 3373 467 3277 614 
Q 3878 755 4364 931 
Q 4851 1107 5293 1344 
L 5293 2227 
L 4045 2227 
Q 3744 2227 3514 2189 
Q 3552 2976 3514 3699 
Q 3661 3674 3773 3667 
Q 3885 3661 4045 3661 
L 5190 3661 
L 5190 4346 
L 4006 4346 
Q 3853 4346 3693 4336 
Q 3533 4326 3366 4294 
L 3366 4806 
Q 3597 4781 3920 4768 
Q 4243 4755 4579 4755 
Q 4915 4755 5222 4768 
Q 5530 4781 5722 4806 
Q 5690 4416 5690 4019 
Q 5690 3622 5728 3219 
Q 5638 3245 5481 3257 
Q 5325 3270 5158 3270 
L 4006 3270 
L 4006 2605 
L 5261 2605 
Q 5408 2605 5552 2611 
Q 5696 2618 5818 2650 
Q 5798 2560 5792 2441 
Q 5786 2323 5786 2074 
L 5786 166 
Q 5786 -45 5750 -185 
Q 5715 -326 5600 -419 
Q 5485 -512 5261 -576 
Q 5037 -640 4659 -704 
Q 4659 -550 4588 -384 
Q 4518 -218 4390 -51 
Q 4806 -154 5046 -58 
Q 5286 38 5293 307 
L 5293 883 
z
M 2541 749 
Q 2259 602 1993 461 
Q 1728 320 1504 192 
Q 1280 64 1110 -38 
Q 941 -141 851 -205 
Q 800 -70 736 64 
Q 672 198 582 352 
Q 698 390 909 473 
Q 1120 557 1389 669 
Q 1658 781 1958 912 
Q 2259 1043 2541 1178 
L 2541 2176 
L 1440 2176 
Q 1274 2176 1133 2163 
Q 992 2150 864 2131 
Q 890 2931 864 3648 
Q 986 3622 1123 3612 
Q 1261 3603 1402 3603 
L 2464 3603 
L 2464 4288 
L 1395 4288 
Q 1242 4288 1085 4278 
Q 928 4269 781 4237 
L 781 4749 
Q 1005 4723 1305 4713 
Q 1606 4704 1916 4704 
Q 2227 4704 2512 4717 
Q 2797 4730 2989 4749 
Q 2957 4365 2957 3974 
Q 2957 3584 3002 3181 
Q 2899 3200 2761 3206 
Q 2624 3213 2470 3213 
L 1344 3213 
L 1344 2547 
L 2573 2547 
Q 2720 2547 2835 2560 
Q 2950 2573 3059 2611 
Q 3040 2522 3030 2394 
Q 3021 2266 3021 2022 
L 3021 173 
Q 3021 -19 2992 -150 
Q 2963 -282 2857 -374 
Q 2752 -467 2541 -537 
Q 2330 -608 1965 -672 
Q 1952 -499 1897 -348 
Q 1843 -198 1722 -26 
Q 2125 -115 2333 -38 
Q 2541 38 2541 320 
L 2541 749 
z
M 1549 973 
Q 1459 1139 1318 1318 
Q 1178 1498 1030 1645 
L 1459 1920 
Q 1568 1786 1699 1629 
Q 1830 1472 1984 1280 
L 1549 973 
z
M 4128 1056 
Q 4045 1242 3939 1411 
Q 3834 1581 3706 1728 
L 4160 1952 
Q 4250 1792 4365 1625 
Q 4480 1459 4602 1318 
L 4128 1056 
z
" transform="scale(0.015625)"/>
     </defs>
     <use xlink:href="#STHeitiTC-Medium-5167"/>
     <use xlink:href="#STHeitiTC-Medium-5f37" transform="translate(99.999985 0)"/>
     <use xlink:href="#STHeitiTC-Medium-5916" transform="translate(199.999969 0)"/>
     <use xlink:href="#STHeitiTC-Medium-5f31" transform="translate(299.999954 0)"/>
    </g>
   </g>
   <g id="text_4">
    <!-- 最佳 -->
    <g transform="translate(507.80525 216.902281) scale(0.18 -0.18)">
     <defs>
      <path id="STHeitiTC-Medium-6700" d="M 4659 3789 
L 1818 3789 
L 1818 3450 
L 4659 3450 
L 4659 3789 
z
M 5216 3053 
Q 5062 3066 4905 3075 
Q 4749 3085 4528 3088 
Q 4307 3091 4000 3094 
Q 3693 3098 3245 3098 
Q 2835 3098 2534 3094 
Q 2234 3091 2003 3088 
Q 1773 3085 1603 3075 
Q 1434 3066 1280 3053 
Q 1306 3110 1315 3187 
Q 1325 3264 1325 3456 
L 1325 4506 
Q 1325 4698 1315 4784 
Q 1306 4870 1280 4922 
Q 1434 4909 1613 4902 
Q 1792 4896 2025 4893 
Q 2259 4890 2556 4886 
Q 2854 4883 3245 4883 
Q 3661 4883 3965 4886 
Q 4269 4890 4496 4893 
Q 4723 4896 4892 4902 
Q 5062 4909 5216 4922 
Q 5197 4870 5187 4745 
Q 5178 4621 5178 4506 
L 5178 3456 
Q 5178 3347 5187 3244 
Q 5197 3142 5216 3053 
z
M 4659 4499 
L 1818 4499 
L 1818 4141 
L 4659 4141 
L 4659 4499 
z
M 2624 1600 
L 1523 1600 
L 1523 1152 
L 2624 1152 
L 2624 1600 
z
M 2624 826 
L 1523 826 
L 1523 333 
L 2624 461 
L 2624 826 
z
M 1523 2349 
L 1523 1939 
L 2624 1939 
L 2624 2349 
L 1523 2349 
z
M 1082 2342 
Q 973 2336 819 2326 
Q 666 2317 429 2298 
L 429 2816 
Q 659 2797 857 2784 
Q 1056 2771 1337 2764 
Q 1619 2758 2048 2755 
Q 2477 2752 3174 2752 
Q 3846 2752 4278 2755 
Q 4710 2758 5004 2764 
Q 5299 2771 5507 2784 
Q 5715 2797 5933 2816 
L 5933 2298 
Q 5709 2317 5497 2326 
Q 5286 2336 4979 2342 
Q 4672 2349 4217 2349 
Q 3763 2349 3066 2349 
L 3066 243 
Q 3066 -13 3075 -221 
Q 3085 -429 3110 -634 
L 2579 -634 
Q 2592 -467 2605 -300 
Q 2618 -134 2624 51 
L 1875 -51 
Q 1606 -90 1328 -141 
Q 1050 -192 659 -275 
Q 640 -134 605 3 
Q 570 141 531 256 
Q 698 262 832 268 
Q 966 275 1082 288 
L 1082 2342 
z
M 3962 1542 
Q 4019 1248 4131 979 
Q 4243 710 4397 512 
Q 4627 781 4774 1017 
Q 4922 1254 4986 1549 
Q 4659 1549 4406 1549 
Q 4154 1549 3962 1542 
z
M 3507 1530 
Q 3373 1517 3258 1510 
L 3258 1984 
Q 3520 1952 3805 1945 
Q 4090 1939 4454 1939 
Q 4806 1939 5075 1945 
Q 5344 1952 5594 1984 
Q 5466 1440 5261 1030 
Q 5056 621 4749 243 
Q 4992 96 5309 3 
Q 5626 -90 5971 -102 
Q 5882 -250 5821 -381 
Q 5760 -512 5722 -691 
Q 5338 -576 5011 -422 
Q 4685 -269 4442 -90 
Q 4282 -237 4058 -413 
Q 3834 -589 3565 -755 
Q 3494 -659 3382 -556 
Q 3270 -454 3136 -384 
Q 3411 -262 3670 -105 
Q 3930 51 4102 205 
Q 3725 659 3507 1530 
z
" transform="scale(0.015625)"/>
      <path id="STHeitiTC-Medium-4f73" d="M 4403 4205 
Q 4883 4211 5248 4224 
Q 5613 4237 5875 4269 
L 5875 3731 
Q 5613 3763 5248 3776 
Q 4883 3789 4403 3795 
L 4403 2976 
Q 4960 2982 5360 2998 
Q 5760 3014 6086 3046 
L 6086 2490 
Q 5728 2522 5273 2538 
Q 4819 2554 4160 2554 
Q 3507 2554 3052 2538 
Q 2598 2522 2246 2490 
L 2246 3046 
Q 2573 3014 2953 2998 
Q 3334 2982 3878 2976 
L 3878 3795 
Q 3430 3789 3078 3776 
Q 2726 3763 2470 3731 
L 2470 4269 
Q 2726 4237 3078 4224 
Q 3430 4211 3878 4205 
Q 3878 4544 3865 4745 
Q 3853 4947 3821 5114 
Q 3981 5094 4134 5084 
Q 4288 5075 4474 5075 
Q 4653 5075 4506 4979 
Q 4454 4947 4428 4880 
Q 4403 4813 4403 4736 
L 4403 4205 
z
M 4390 1510 
Q 4819 1517 5168 1529 
Q 5517 1542 5747 1574 
L 5747 1024 
Q 5517 1056 5168 1069 
Q 4819 1082 4390 1088 
L 4390 134 
Q 4947 141 5344 153 
Q 5741 166 6061 198 
L 6061 -384 
Q 5702 -352 5244 -336 
Q 4787 -320 4128 -320 
Q 3475 -320 3014 -336 
Q 2554 -352 2202 -384 
L 2202 198 
Q 2528 166 2921 153 
Q 3315 141 3866 134 
L 3866 1088 
Q 3424 1082 3072 1069 
Q 2720 1056 2477 1024 
L 2477 1574 
Q 2726 1542 3075 1529 
Q 3424 1517 3866 1510 
Q 3866 1690 3862 1821 
Q 3859 1952 3852 2051 
Q 3846 2150 3836 2224 
Q 3827 2298 3808 2362 
Q 3968 2342 4121 2332 
Q 4275 2323 4461 2323 
Q 4544 2323 4557 2297 
Q 4570 2272 4499 2227 
Q 4448 2195 4419 2118 
Q 4390 2042 4390 1984 
L 4390 1510 
z
M 1331 2912 
Q 1184 2656 1053 2464 
Q 922 2272 762 2067 
Q 678 2176 560 2288 
Q 442 2400 314 2490 
Q 934 3014 1350 3930 
Q 1478 4218 1596 4544 
Q 1715 4870 1766 5133 
Q 2054 4986 2368 4909 
Q 2464 4877 2470 4832 
Q 2477 4787 2362 4717 
Q 2336 4704 2304 4665 
Q 2272 4627 2214 4534 
Q 2157 4442 2067 4278 
Q 1978 4115 1843 3859 
L 1843 -678 
L 1248 -678 
Q 1299 -390 1315 -147 
Q 1331 96 1331 301 
L 1331 2912 
z
" transform="scale(0.015625)"/>
     </defs>
     <use xlink:href="#STHeitiTC-Medium-6700"/>
     <use xlink:href="#STHeitiTC-Medium-4f73" transform="translate(99.999985 0)"/>
    </g>
   </g>
   <g id="text_5">
    <!-- 38.9% 吉 -->
    <g transform="translate(494.0915 295.20225) scale(0.16 -0.16)">
     <defs>
      <path id="STHeitiTC-Medium-38" d="M 2547 2950 
Q 3373 2522 3373 1747 
Q 3373 1114 2928 691 
Q 2483 269 1763 269 
Q 1043 269 608 691 
Q 173 1114 173 1709 
Q 173 2515 1018 2950 
Q 390 3315 390 3942 
Q 390 4435 800 4809 
Q 1210 5184 1782 5184 
Q 2355 5184 2758 4819 
Q 3162 4454 3162 3930 
Q 3162 3322 2547 2950 
z
M 1792 3181 
Q 2118 3181 2364 3411 
Q 2611 3642 2611 3939 
Q 2611 4237 2380 4445 
Q 2150 4653 1785 4653 
Q 1421 4653 1184 4445 
Q 947 4237 947 3939 
Q 947 3642 1203 3411 
Q 1459 3181 1792 3181 
z
M 1773 794 
Q 2234 794 2528 1069 
Q 2822 1344 2822 1728 
Q 2822 2112 2518 2393 
Q 2214 2675 1782 2675 
Q 1350 2675 1036 2384 
Q 723 2093 723 1699 
Q 723 1306 1014 1050 
Q 1306 794 1773 794 
z
" transform="scale(0.015625)"/>
      <path id="STHeitiTC-Medium-39" d="M 1984 2355 
Q 1798 2310 1613 2310 
Q 1043 2310 656 2716 
Q 269 3123 269 3737 
Q 269 4352 697 4768 
Q 1126 5184 1747 5184 
Q 2368 5184 2777 4758 
Q 3187 4333 3187 3738 
Q 3187 3411 3052 3081 
Q 2918 2752 2662 2368 
L 1248 250 
L 787 544 
L 1984 2355 
z
M 1728 2803 
Q 2112 2803 2381 3075 
Q 2650 3347 2650 3724 
Q 2650 4102 2381 4374 
Q 2112 4646 1728 4646 
Q 1344 4646 1075 4377 
Q 806 4109 806 3725 
Q 806 3341 1075 3072 
Q 1344 2803 1728 2803 
z
" transform="scale(0.015625)"/>
     </defs>
     <use xlink:href="#STHeitiTC-Medium-33"/>
     <use xlink:href="#STHeitiTC-Medium-38" transform="translate(55.399994 0)"/>
     <use xlink:href="#STHeitiTC-Medium-2e" transform="translate(110.799988 0)"/>
     <use xlink:href="#STHeitiTC-Medium-39" transform="translate(138.499985 0)"/>
     <use xlink:href="#STHeitiTC-Medium-25" transform="translate(193.899979 0)"/>
     <use xlink:href="#STHeitiTC-Medium-20" transform="translate(271.399963 0)"/>
     <use xlink:href="#STHeitiTC-Medium-5409" transform="translate(296.399948 0)"/>
    </g>
   </g>
   <g id="text_6">
    <!-- 內外皆強 -->
    <g style="fill: #333333" transform="translate(501.80525 366.658438) scale(0.12 -0.12)">
     <defs>
      <path id="STHeitiTC-Medium-7686" d="M 4506 1632 
L 1626 1632 
L 1626 1114 
L 4506 1114 
L 4506 1632 
z
M 1626 115 
L 4506 115 
L 4506 685 
L 1626 685 
L 1626 115 
z
M 3859 4083 
Q 4403 4301 4739 4480 
Q 5075 4659 5306 4819 
Q 5402 4672 5526 4534 
Q 5651 4397 5760 4314 
Q 5824 4269 5808 4240 
Q 5792 4211 5683 4218 
Q 5613 4224 5513 4208 
Q 5414 4192 5222 4134 
Q 5030 4077 4707 3965 
Q 4384 3853 3859 3667 
L 3859 3181 
Q 3859 3110 3878 3068 
Q 3898 3027 3974 2998 
Q 4051 2970 4198 2960 
Q 4346 2950 4608 2950 
Q 4838 2950 4982 2976 
Q 5126 3002 5212 3072 
Q 5299 3142 5347 3276 
Q 5395 3411 5440 3622 
Q 5530 3475 5664 3382 
Q 5798 3290 5946 3251 
Q 5869 3002 5779 2854 
Q 5690 2707 5539 2627 
Q 5389 2547 5152 2524 
Q 4915 2502 4538 2502 
Q 4102 2502 3859 2518 
Q 3616 2534 3501 2595 
Q 3386 2656 3360 2784 
Q 3334 2912 3334 3136 
L 3334 4416 
Q 3334 4685 3328 4851 
Q 3322 5018 3302 5126 
Q 3648 5075 3949 5088 
Q 4038 5088 4054 5049 
Q 4070 5011 3981 4954 
Q 3910 4902 3884 4857 
Q 3859 4813 3859 4742 
L 3859 4083 
z
M 2253 4262 
Q 2509 4262 2662 4272 
Q 2816 4282 2912 4301 
L 2912 3808 
Q 2816 3827 2669 3836 
Q 2522 3846 2253 3846 
L 1338 3846 
L 1338 2944 
Q 1664 3027 2035 3136 
Q 2406 3245 2822 3379 
Q 2816 3245 2825 3161 
Q 2835 3078 2867 2970 
L 1318 2502 
Q 1120 2445 931 2374 
Q 742 2304 634 2234 
Q 582 2534 448 2765 
Q 602 2784 813 2822 
L 813 4326 
Q 813 4531 803 4726 
Q 794 4922 774 5069 
Q 934 5037 1091 5027 
Q 1248 5018 1376 5024 
Q 1466 5030 1478 4995 
Q 1491 4960 1446 4928 
Q 1376 4877 1357 4838 
Q 1338 4800 1338 4749 
L 1338 4262 
L 2253 4262 
z
M 2272 2035 
Q 2336 2189 2387 2365 
Q 2438 2541 2470 2694 
Q 2650 2637 2806 2598 
Q 2963 2560 3130 2541 
Q 3187 2534 3190 2515 
Q 3194 2496 3142 2477 
Q 3091 2458 2985 2358 
Q 2880 2259 2726 2035 
L 3686 2035 
Q 3878 2035 4083 2035 
Q 4288 2035 4473 2038 
Q 4659 2042 4809 2045 
Q 4960 2048 5056 2054 
Q 5043 1990 5040 1910 
Q 5037 1830 5037 1696 
L 5037 -19 
Q 5037 -237 5040 -384 
Q 5043 -531 5056 -646 
L 4506 -646 
L 4506 -314 
L 1626 -314 
L 1626 -710 
L 1043 -710 
Q 1056 -602 1065 -509 
Q 1075 -416 1081 -320 
Q 1088 -224 1091 -115 
Q 1094 -6 1094 134 
L 1094 1696 
Q 1094 1920 1075 2054 
Q 1210 2048 1530 2041 
Q 1850 2035 2272 2035 
z
" transform="scale(0.015625)"/>
     </defs>
     <use xlink:href="#STHeitiTC-Medium-5167"/>
     <use xlink:href="#STHeitiTC-Medium-5916" transform="translate(99.999985 0)"/>
     <use xlink:href="#STHeitiTC-Medium-7686" transform="translate(199.999969 0)"/>
     <use xlink:href="#STHeitiTC-Medium-5f37" transform="translate(299.999954 0)"/>
    </g>
   </g>
   <g id="text_7">
    <!-- 最差 -->
    <g transform="translate(226.71775 497.989781) scale(0.18 -0.18)">
     <defs>
      <path id="STHeitiTC-Medium-5dee" d="M 2246 4282 
Q 2176 4429 2086 4563 
Q 1997 4698 1862 4858 
L 2426 5133 
Q 2515 4960 2611 4800 
Q 2707 4640 2810 4499 
L 2246 4282 
z
M 2944 3846 
Q 2227 3840 1692 3827 
Q 1158 3814 755 3782 
L 755 4301 
Q 979 4282 1171 4272 
Q 1363 4262 1555 4252 
Q 1747 4243 1948 4240 
Q 2150 4237 2387 4237 
L 3629 4237 
Q 3770 4422 3888 4662 
Q 4006 4902 4083 5158 
Q 4288 5082 4429 5043 
Q 4570 5005 4717 4973 
Q 4800 4960 4800 4928 
Q 4800 4896 4704 4864 
Q 4685 4858 4662 4842 
Q 4640 4826 4585 4765 
Q 4531 4704 4428 4582 
Q 4326 4461 4147 4243 
Q 4614 4250 4982 4262 
Q 5350 4275 5658 4301 
L 5658 3782 
Q 5248 3814 4713 3830 
Q 4179 3846 3456 3846 
L 3456 3328 
Q 4122 3328 4598 3341 
Q 5075 3354 5440 3386 
L 5440 2861 
Q 5075 2893 4598 2909 
Q 4122 2925 3456 2925 
L 3456 2342 
Q 4294 2342 4899 2355 
Q 5504 2368 5971 2400 
L 5971 1875 
Q 5722 1894 5533 1904 
Q 5344 1914 5171 1920 
Q 4998 1926 4819 1929 
Q 4640 1933 4410 1933 
L 2739 1933 
Q 2662 1786 2582 1661 
Q 2502 1536 2387 1370 
L 3840 1370 
Q 4282 1370 4685 1382 
Q 5088 1395 5363 1427 
L 5363 896 
Q 5094 928 4700 941 
Q 4307 954 3878 954 
L 3878 13 
Q 4538 13 5008 25 
Q 5478 38 5850 70 
L 5850 -486 
Q 5446 -454 4921 -441 
Q 4397 -429 3642 -429 
Q 2886 -429 2364 -441 
Q 1843 -454 1440 -486 
L 1440 70 
Q 1811 45 2272 32 
Q 2733 19 3379 13 
L 3379 954 
Q 2765 941 2323 896 
L 2323 1280 
Q 1997 832 1616 441 
Q 1235 51 851 -243 
Q 794 -147 678 -28 
Q 563 90 429 160 
Q 742 371 985 560 
Q 1229 749 1433 953 
Q 1638 1158 1824 1392 
Q 2010 1626 2202 1926 
Q 1690 1920 1286 1910 
Q 883 1901 544 1875 
L 544 2400 
Q 998 2374 1574 2361 
Q 2150 2349 2944 2342 
L 2944 2925 
Q 2317 2918 1865 2905 
Q 1414 2893 1062 2861 
L 1062 3386 
Q 1421 3360 1869 3347 
Q 2317 3334 2944 3328 
L 2944 3846 
z
" transform="scale(0.015625)"/>
     </defs>
     <use xlink:href="#STHeitiTC-Medium-6700"/>
     <use xlink:href="#STHeitiTC-Medium-5dee" transform="translate(99.999985 0)"/>
    </g>
   </g>
   <g id="text_8">
    <!-- 20.0% 吉 -->
    <g transform="translate(213.004 576.28975) scale(0.16 -0.16)">
     <defs>
      <path id="STHeitiTC-Medium-32" d="M 3360 384 
L 90 384 
L 1914 2355 
Q 2374 2842 2566 3123 
Q 2758 3405 2758 3763 
Q 2758 4122 2480 4390 
Q 2202 4659 1789 4659 
Q 1376 4659 1101 4368 
Q 826 4077 787 3539 
L 256 3539 
Q 288 4294 736 4739 
Q 1184 5184 1821 5184 
Q 2458 5184 2877 4771 
Q 3296 4358 3296 3763 
Q 3296 3328 3065 2950 
Q 2835 2573 2368 2074 
L 1293 915 
L 3360 915 
L 3360 384 
z
" transform="scale(0.015625)"/>
      <path id="STHeitiTC-Medium-30" d="M 1747 5184 
Q 2502 5184 2944 4547 
Q 3386 3910 3386 2723 
Q 3386 1536 2938 902 
Q 2490 269 1738 269 
Q 986 269 573 893 
Q 160 1517 160 2729 
Q 160 3942 573 4563 
Q 986 5184 1747 5184 
z
M 1760 774 
Q 2285 774 2576 1283 
Q 2867 1792 2867 2726 
Q 2867 3661 2566 4160 
Q 2266 4659 1757 4659 
Q 1248 4659 966 4160 
Q 685 3661 685 2714 
Q 685 774 1760 774 
z
" transform="scale(0.015625)"/>
     </defs>
     <use xlink:href="#STHeitiTC-Medium-32"/>
     <use xlink:href="#STHeitiTC-Medium-30" transform="translate(55.399994 0)"/>
     <use xlink:href="#STHeitiTC-Medium-2e" transform="translate(110.799988 0)"/>
     <use xlink:href="#STHeitiTC-Medium-30" transform="translate(138.499985 0)"/>
     <use xlink:href="#STHeitiTC-Medium-25" transform="translate(193.899979 0)"/>
     <use xlink:href="#STHeitiTC-Medium-20" transform="translate(271.399963 0)"/>
     <use xlink:href="#STHeitiTC-Medium-5409" transform="translate(296.399948 0)"/>
    </g>
   </g>
   <g id="text_9">
    <!-- 內外皆弱 -->
    <g style="fill: #333333" transform="translate(220.71775 647.745938) scale(0.12 -0.12)">
     <use xlink:href="#STHeitiTC-Medium-5167"/>
     <use xlink:href="#STHeitiTC-Medium-5916" transform="translate(99.999985 0)"/>
     <use xlink:href="#STHeitiTC-Medium-7686" transform="translate(199.999969 0)"/>
     <use xlink:href="#STHeitiTC-Medium-5f31" transform="translate(299.999954 0)"/>
    </g>
   </g>
   <g id="text_10">
    <!-- 不穩 -->
    <g transform="translate(507.80525 497.989781) scale(0.18 -0.18)">
     <defs>
      <path id="STHeitiTC-Medium-4e0d" d="M 5485 826 
Q 5299 1101 5116 1341 
Q 4934 1581 4742 1798 
Q 4550 2016 4342 2217 
Q 4134 2419 3898 2618 
L 4390 2982 
Q 4627 2758 4828 2560 
Q 5030 2362 5225 2160 
Q 5421 1958 5619 1740 
Q 5818 1523 6048 1261 
L 5485 826 
z
M 3354 4192 
Q 2381 4192 1705 4179 
Q 1030 4166 538 4134 
L 538 4723 
Q 1030 4691 1705 4675 
Q 2381 4659 3296 4659 
Q 4211 4659 4883 4675 
Q 5555 4691 6048 4723 
L 6048 4134 
Q 5645 4166 5133 4176 
Q 4621 4186 3987 4192 
Q 3898 3981 3782 3760 
Q 3667 3539 3520 3315 
L 3520 397 
Q 3520 218 3523 80 
Q 3526 -58 3532 -182 
Q 3539 -307 3548 -432 
Q 3558 -557 3578 -704 
L 2867 -704 
Q 2886 -557 2896 -432 
Q 2906 -307 2912 -182 
Q 2918 -58 2921 80 
Q 2925 218 2925 397 
L 2925 2509 
Q 2547 2067 2044 1612 
Q 1542 1158 883 698 
Q 794 838 646 998 
Q 499 1158 352 1248 
Q 1414 1715 2160 2438 
Q 2906 3162 3354 4192 
z
" transform="scale(0.015625)"/>
     </defs>
     <use xlink:href="#STHeitiTC-Medium-4e0d"/>
     <use xlink:href="#STHeitiTC-Medium-7a69" transform="translate(99.999985 0)"/>
    </g>
   </g>
   <g id="text_11">
    <!-- 20.8% 吉 -->
    <g transform="translate(494.0915 576.28975) scale(0.16 -0.16)">
     <use xlink:href="#STHeitiTC-Medium-32"/>
     <use xlink:href="#STHeitiTC-Medium-30" transform="translate(55.399994 0)"/>
     <use xlink:href="#STHeitiTC-Medium-2e" transform="translate(110.799988 0)"/>
     <use xlink:href="#STHeitiTC-Medium-38" transform="translate(138.499985 0)"/>
     <use xlink:href="#STHeitiTC-Medium-25" transform="translate(193.899979 0)"/>
     <use xlink:href="#STHeitiTC-Medium-20" transform="translate(271.399963 0)"/>
     <use xlink:href="#STHeitiTC-Medium-5409" transform="translate(296.399948 0)"/>
    </g>
   </g>
   <g id="text_12">
    <!-- 外強內弱 -->
    <g style="fill: #333333" transform="translate(501.80525 647.745938) scale(0.12 -0.12)">
     <use xlink:href="#STHeitiTC-Medium-5916"/>
     <use xlink:href="#STHeitiTC-Medium-5f37" transform="translate(99.999985 0)"/>
     <use xlink:href="#STHeitiTC-Medium-5167" transform="translate(199.999969 0)"/>
     <use xlink:href="#STHeitiTC-Medium-5f31" transform="translate(299.999954 0)"/>
    </g>
   </g>
   <g id="text_13">
    <!-- 上卦（外在環境） -->
    <g transform="translate(329.2615 90.890688) scale(0.14 -0.14)">
     <defs>
      <path id="STHeitiTC-Medium-4e0a" d="M 3245 326 
Q 3712 326 4105 329 
Q 4499 333 4835 342 
Q 5171 352 5456 361 
Q 5741 371 5997 390 
L 5997 -250 
Q 5734 -230 5446 -220 
Q 5158 -211 4819 -201 
Q 4480 -192 4083 -189 
Q 3686 -186 3206 -186 
Q 2253 -186 1581 -202 
Q 909 -218 397 -250 
L 397 390 
Q 838 358 1379 345 
Q 1920 333 2650 326 
L 2650 3424 
Q 2650 3808 2646 4083 
Q 2643 4358 2636 4547 
Q 2630 4736 2620 4851 
Q 2611 4966 2598 5037 
Q 2758 5005 2956 4992 
Q 3155 4979 3341 4979 
Q 3430 4979 3440 4940 
Q 3450 4902 3366 4845 
Q 3315 4806 3280 4643 
Q 3245 4480 3245 4262 
L 3245 3418 
L 4090 3418 
Q 4525 3418 4854 3430 
Q 5184 3443 5446 3469 
L 5446 2835 
Q 5190 2867 4857 2876 
Q 4525 2886 4090 2886 
L 3245 2886 
L 3245 326 
z
" transform="scale(0.015625)"/>
      <path id="STHeitiTC-Medium-5366" d="M 2253 384 
Q 2656 435 3001 486 
Q 3347 538 3539 582 
Q 3392 346 3411 19 
Q 3296 13 3091 0 
Q 2886 -13 2630 -38 
Q 2374 -64 2089 -99 
Q 1805 -134 1526 -179 
Q 1248 -224 995 -278 
Q 742 -333 563 -390 
Q 550 -205 515 -51 
Q 480 102 410 288 
Q 678 269 1004 281 
Q 1331 294 1766 333 
L 1766 1325 
Q 1421 1312 1136 1293 
Q 851 1274 666 1242 
L 666 1786 
Q 851 1754 1100 1741 
Q 1350 1728 1766 1722 
Q 1760 2029 1750 2195 
Q 1741 2362 1722 2464 
Q 1862 2445 2003 2435 
Q 2144 2426 2310 2426 
Q 2477 2426 2336 2323 
Q 2298 2291 2275 2224 
Q 2253 2157 2253 2099 
L 2253 1722 
Q 2477 1722 2646 1728 
Q 2816 1734 2947 1740 
Q 3078 1747 3180 1760 
Q 3283 1773 3373 1786 
L 3373 1261 
Q 3187 1293 2921 1305 
Q 2656 1318 2253 1325 
L 2253 384 
z
M 2234 4256 
Q 2662 4262 2905 4275 
Q 3149 4288 3328 4320 
L 3328 3802 
Q 3149 3821 2899 3833 
Q 2650 3846 2234 3853 
L 2234 3091 
Q 2477 3091 2675 3097 
Q 2874 3104 3040 3110 
Q 3206 3117 3350 3129 
Q 3494 3142 3642 3155 
L 3642 2605 
Q 3475 2624 3312 2633 
Q 3149 2643 2950 2652 
Q 2752 2662 2515 2665 
Q 2278 2669 1971 2669 
Q 1664 2669 1446 2665 
Q 1229 2662 1056 2656 
Q 883 2650 739 2637 
Q 595 2624 435 2605 
L 435 3155 
Q 582 3136 716 3126 
Q 851 3117 998 3110 
Q 1146 3104 1325 3097 
Q 1504 3091 1747 3091 
L 1747 3853 
Q 1574 3853 1433 3846 
Q 1293 3840 1168 3830 
Q 1043 3821 924 3811 
Q 806 3802 678 3782 
L 678 4320 
Q 774 4307 867 4294 
Q 960 4282 1081 4275 
Q 1203 4269 1363 4262 
Q 1523 4256 1747 4256 
Q 1747 4416 1744 4534 
Q 1741 4653 1737 4749 
Q 1734 4845 1724 4928 
Q 1715 5011 1702 5101 
Q 1843 5082 1984 5072 
Q 2125 5062 2291 5062 
Q 2458 5062 2317 4960 
Q 2278 4928 2256 4861 
Q 2234 4794 2234 4736 
L 2234 4256 
z
M 4544 653 
Q 4544 538 4547 378 
Q 4550 218 4560 45 
Q 4570 -128 4582 -294 
Q 4595 -461 4608 -595 
L 3981 -595 
Q 4006 -358 4022 -28 
Q 4038 301 4038 653 
L 4038 4134 
Q 4038 4474 4019 4746 
Q 4000 5018 3968 5126 
Q 4154 5094 4285 5081 
Q 4416 5069 4589 5069 
Q 4698 5069 4720 5033 
Q 4742 4998 4634 4934 
Q 4582 4902 4563 4796 
Q 4544 4691 4544 4454 
L 4544 3386 
Q 4909 3110 5254 2800 
Q 5600 2490 5990 2106 
L 5562 1613 
Q 5280 1958 5033 2220 
Q 4787 2483 4544 2701 
L 4544 653 
z
" transform="scale(0.015625)"/>
      <path id="STHeitiTC-Medium-ff08" d="M 5651 -749 
L 5274 -749 
Q 4646 173 4409 835 
Q 4173 1498 4173 2266 
Q 4173 3034 4432 3750 
Q 4691 4467 5254 5267 
L 5645 5267 
Q 5082 4237 4928 3606 
Q 4774 2976 4774 2093 
Q 4774 1472 4953 861 
Q 5133 250 5651 -749 
z
" transform="scale(0.015625)"/>
      <path id="STHeitiTC-Medium-5728" d="M 4320 2240 
Q 4794 2246 5120 2259 
Q 5446 2272 5715 2304 
L 5715 1728 
Q 5446 1760 5120 1773 
Q 4794 1786 4320 1786 
L 4320 224 
Q 4890 230 5293 243 
Q 5696 256 6022 288 
L 6022 -301 
Q 5664 -269 5209 -253 
Q 4755 -237 4096 -237 
Q 3437 -237 2985 -253 
Q 2534 -269 2176 -301 
L 2176 288 
Q 2502 256 2883 243 
Q 3264 230 3802 224 
L 3802 1786 
Q 3373 1773 3069 1757 
Q 2765 1741 2515 1709 
L 2515 2304 
Q 2778 2272 3075 2259 
Q 3373 2246 3802 2240 
Q 3802 3187 3744 3450 
Q 3885 3418 4048 3402 
Q 4211 3386 4378 3386 
Q 4544 3386 4403 3283 
Q 4365 3251 4342 3184 
Q 4320 3117 4320 3059 
L 4320 2240 
z
M 2387 3789 
Q 1933 3776 1571 3766 
Q 1210 3757 896 3731 
L 896 4320 
Q 1248 4294 1657 4281 
Q 2067 4269 2598 4256 
Q 2797 4742 2854 5254 
Q 2925 5229 3021 5203 
Q 3117 5178 3213 5158 
Q 3309 5139 3395 5123 
Q 3482 5107 3539 5101 
Q 3642 5088 3654 5049 
Q 3667 5011 3546 4922 
Q 3526 4909 3507 4883 
Q 3488 4858 3449 4787 
Q 3411 4717 3347 4592 
Q 3283 4467 3181 4256 
Q 4090 4250 4803 4266 
Q 5517 4282 6035 4320 
L 6035 3731 
Q 5485 3770 4697 3786 
Q 3910 3802 2957 3795 
Q 2790 3450 2550 3094 
Q 2310 2739 2003 2374 
L 2003 589 
Q 2003 480 2003 371 
Q 2003 262 2009 128 
Q 2016 -6 2019 -169 
Q 2022 -333 2035 -544 
L 1446 -544 
Q 1453 -333 1462 -169 
Q 1472 -6 1475 128 
Q 1478 262 1481 371 
Q 1485 480 1485 589 
L 1485 1805 
Q 1171 1491 838 1197 
Q 704 1363 592 1449 
Q 480 1536 365 1587 
Q 672 1779 947 2009 
Q 1222 2240 1472 2502 
Q 1459 2669 1446 2787 
Q 1434 2906 1414 2970 
Q 1542 2944 1644 2937 
Q 1747 2931 1843 2938 
Q 2170 3354 2387 3789 
z
" transform="scale(0.015625)"/>
      <path id="STHeitiTC-Medium-74b0" d="M 4992 2163 
L 3098 2163 
L 3098 1696 
L 4992 1696 
L 4992 2163 
z
M 3443 4493 
L 2944 4493 
L 2944 3770 
L 3443 3770 
L 3443 4493 
z
M 5715 3392 
Q 5350 3405 4956 3414 
Q 4563 3424 4096 3424 
Q 3622 3424 3225 3414 
Q 2829 3405 2470 3392 
Q 2483 3578 2486 3773 
Q 2490 3968 2490 4154 
Q 2490 4358 2486 4556 
Q 2483 4755 2470 4909 
Q 2650 4896 2806 4886 
Q 2963 4877 3145 4873 
Q 3328 4870 3555 4867 
Q 3782 4864 4096 4864 
Q 4397 4864 4621 4867 
Q 4845 4870 5027 4873 
Q 5210 4877 5373 4886 
Q 5536 4896 5715 4909 
Q 5702 4774 5696 4566 
Q 5690 4358 5690 4154 
Q 5690 3930 5696 3734 
Q 5702 3539 5715 3392 
z
M 4320 4493 
L 3827 4493 
L 3827 3770 
L 4320 3770 
L 4320 4493 
z
M 5229 4493 
L 4704 4493 
L 4704 3770 
L 5229 3770 
L 5229 4493 
z
M 5990 2765 
Q 5818 2771 5622 2780 
Q 5427 2790 5203 2793 
Q 4979 2797 4710 2800 
Q 4442 2803 4115 2803 
Q 3462 2803 3024 2793 
Q 2586 2784 2234 2765 
L 2234 3219 
Q 2413 3206 2605 3200 
Q 2797 3194 3024 3187 
Q 3251 3181 3520 3177 
Q 3789 3174 4115 3174 
Q 4442 3174 4710 3177 
Q 4979 3181 5203 3187 
Q 5427 3194 5622 3200 
Q 5818 3206 5990 3219 
L 5990 2765 
z
M 1050 4173 
Q 826 4166 659 4153 
Q 493 4141 352 4122 
L 352 4627 
Q 442 4614 531 4604 
Q 621 4595 729 4592 
Q 838 4589 979 4585 
Q 1120 4582 1306 4582 
Q 1491 4582 1628 4585 
Q 1766 4589 1875 4592 
Q 1984 4595 2073 4604 
Q 2163 4614 2253 4627 
L 2253 4122 
Q 2106 4141 1936 4153 
Q 1766 4166 1530 4173 
L 1530 2771 
Q 1696 2778 1827 2787 
Q 1958 2797 2067 2810 
L 2067 2330 
Q 1958 2342 1827 2352 
Q 1696 2362 1530 2368 
L 1530 973 
Q 1728 1030 1920 1091 
Q 2112 1152 2298 1222 
Q 2291 1101 2294 1001 
Q 2298 902 2310 749 
Q 1696 595 1222 441 
Q 749 288 435 141 
Q 403 301 361 425 
Q 320 550 262 698 
Q 442 723 640 758 
Q 838 794 1050 845 
L 1050 2374 
Q 838 2368 681 2358 
Q 525 2349 397 2330 
L 397 2810 
Q 525 2797 681 2787 
Q 838 2778 1050 2771 
L 1050 4173 
z
M 4461 1312 
Q 4531 1146 4604 1011 
Q 4678 877 4768 768 
Q 4941 877 5104 1017 
Q 5267 1158 5395 1293 
Q 5011 1312 4461 1312 
z
M 3878 1312 
Q 3814 1242 3756 1184 
Q 3699 1126 3635 1062 
L 3635 45 
Q 3827 122 3990 198 
Q 4154 275 4243 326 
Q 4269 218 4304 112 
Q 4339 6 4371 -77 
L 3347 -518 
Q 3219 -570 3139 -618 
Q 3059 -666 2995 -723 
Q 2950 -608 2889 -509 
Q 2829 -410 2720 -288 
Q 2829 -256 2950 -217 
Q 3072 -179 3194 -128 
L 3194 659 
Q 2944 454 2685 275 
Q 2426 96 2125 -83 
Q 2035 32 1942 118 
Q 1850 205 1683 314 
Q 2195 480 2598 713 
Q 3002 947 3347 1312 
Q 2918 1312 2605 1293 
Q 2618 1421 2624 1584 
Q 2630 1747 2630 1926 
Q 2630 2093 2624 2265 
Q 2618 2438 2605 2560 
Q 2739 2554 2886 2547 
Q 3034 2541 3210 2537 
Q 3386 2534 3594 2534 
Q 3802 2534 4064 2534 
Q 4582 2534 4924 2540 
Q 5267 2547 5498 2560 
Q 5485 2451 5481 2272 
Q 5478 2093 5478 1926 
Q 5478 1779 5481 1644 
Q 5485 1510 5491 1395 
Q 5510 1421 5526 1440 
Q 5542 1459 5555 1485 
Q 5626 1421 5715 1357 
Q 5805 1293 5952 1203 
Q 6029 1158 6019 1123 
Q 6010 1088 5914 1075 
Q 5824 1056 5587 925 
Q 5350 794 5005 525 
Q 5203 365 5472 233 
Q 5741 102 6138 -45 
Q 5978 -179 5891 -291 
Q 5805 -403 5741 -531 
Q 5165 -250 4707 233 
Q 4250 717 4026 1312 
L 3878 1312 
z
" transform="scale(0.015625)"/>
      <path id="STHeitiTC-Medium-5883" d="M 4973 1645 
L 2874 1645 
L 2874 1242 
L 4973 1242 
L 4973 1645 
z
M 4973 2374 
L 2874 2374 
L 2874 1990 
L 4973 1990 
L 4973 2374 
z
M 3597 858 
Q 3552 544 3453 307 
Q 3354 70 3155 -112 
Q 2957 -294 2643 -438 
Q 2330 -582 1856 -717 
Q 1786 -582 1693 -460 
Q 1600 -339 1491 -218 
Q 1920 -160 2208 -93 
Q 2496 -26 2681 89 
Q 2867 205 2963 387 
Q 3059 570 3104 858 
Q 2867 851 2704 844 
Q 2541 838 2394 826 
Q 2406 902 2409 1024 
Q 2413 1146 2413 1274 
L 2413 2323 
Q 2413 2451 2406 2576 
Q 2400 2701 2394 2771 
Q 2490 2758 2598 2755 
Q 2707 2752 2880 2745 
Q 3053 2739 3305 2739 
Q 3558 2739 3936 2739 
Q 4307 2739 4560 2739 
Q 4813 2739 4985 2745 
Q 5158 2752 5270 2755 
Q 5382 2758 5478 2771 
Q 5466 2701 5462 2576 
Q 5459 2451 5459 2323 
L 5459 1274 
Q 5459 1146 5462 1024 
Q 5466 902 5478 826 
Q 5306 838 5085 848 
Q 4864 858 4550 858 
L 4550 128 
Q 4550 51 4560 6 
Q 4570 -38 4614 -60 
Q 4659 -83 4752 -89 
Q 4845 -96 5018 -96 
Q 5165 -96 5261 -77 
Q 5357 -58 5417 9 
Q 5478 77 5523 205 
Q 5568 333 5619 550 
Q 5722 422 5830 352 
Q 5939 282 6106 218 
Q 6022 -19 5929 -166 
Q 5837 -314 5712 -397 
Q 5587 -480 5414 -512 
Q 5242 -544 4998 -544 
Q 4710 -544 4531 -525 
Q 4352 -506 4256 -451 
Q 4160 -397 4128 -297 
Q 4096 -198 4096 -45 
L 4096 858 
L 3597 858 
z
M 3085 3507 
Q 3053 3622 2989 3779 
Q 2925 3936 2867 4038 
L 3354 4173 
Q 3398 4070 3468 3932 
Q 3539 3795 3597 3693 
L 3085 3507 
z
M 1491 1165 
Q 1862 1280 2170 1440 
Q 2106 1165 2150 909 
Q 2010 883 1814 822 
Q 1619 762 1398 675 
Q 1178 589 944 480 
Q 710 371 493 243 
Q 467 410 412 586 
Q 358 762 294 928 
Q 493 960 669 989 
Q 845 1018 1011 1050 
L 1011 3046 
Q 800 3046 653 3040 
Q 506 3034 390 3021 
L 390 3507 
Q 506 3494 653 3488 
Q 800 3482 1011 3482 
Q 1011 3885 1008 4144 
Q 1005 4403 995 4563 
Q 986 4723 976 4806 
Q 966 4890 960 4941 
Q 1107 4915 1244 4905 
Q 1382 4896 1549 4896 
Q 1626 4896 1635 4864 
Q 1645 4832 1574 4794 
Q 1530 4768 1510 4662 
Q 1491 4557 1491 4467 
L 1491 3482 
Q 1645 3488 1760 3491 
Q 1875 3494 1971 3507 
L 1971 3021 
Q 1875 3034 1760 3037 
Q 1645 3040 1491 3040 
L 1491 1165 
z
M 4230 3475 
Q 4346 3693 4429 3891 
Q 4512 4090 4525 4147 
Q 4659 4096 4780 4057 
Q 4902 4019 5011 4000 
Q 5126 3981 5018 3917 
Q 4986 3898 4915 3798 
Q 4845 3699 4704 3475 
Q 5126 3475 5446 3484 
Q 5766 3494 5958 3520 
L 5958 3046 
Q 5856 3053 5705 3062 
Q 5555 3072 5334 3081 
Q 5114 3091 4806 3094 
Q 4499 3098 4083 3098 
Q 3661 3098 3353 3094 
Q 3046 3091 2825 3084 
Q 2605 3078 2454 3068 
Q 2304 3059 2202 3046 
L 2202 3520 
Q 2406 3494 2742 3484 
Q 3078 3475 3539 3475 
L 4230 3475 
z
M 3782 4595 
Q 3757 4723 3725 4838 
Q 3693 4954 3622 5101 
L 4179 5242 
Q 4211 5101 4249 4931 
Q 4288 4762 4333 4595 
Q 4653 4595 4873 4598 
Q 5094 4602 5248 4605 
Q 5402 4608 5510 4614 
Q 5619 4621 5722 4634 
L 5722 4186 
Q 5606 4198 5481 4208 
Q 5357 4218 5165 4221 
Q 4973 4224 4694 4227 
Q 4416 4230 3994 4230 
Q 3571 4230 3296 4227 
Q 3021 4224 2838 4221 
Q 2656 4218 2534 4208 
Q 2413 4198 2298 4186 
L 2298 4634 
Q 2406 4621 2518 4614 
Q 2630 4608 2793 4601 
Q 2957 4595 3190 4595 
Q 3424 4595 3782 4595 
z
" transform="scale(0.015625)"/>
      <path id="STHeitiTC-Medium-ff09" d="M 1120 5267 
Q 1747 4346 1984 3683 
Q 2221 3021 2221 2253 
Q 2221 1485 1961 768 
Q 1702 51 1139 -749 
L 749 -749 
Q 1312 282 1465 912 
Q 1619 1542 1619 2426 
Q 1619 3046 1440 3657 
Q 1261 4269 742 5267 
L 1120 5267 
z
" transform="scale(0.015625)"/>
     </defs>
     <use xlink:href="#STHeitiTC-Medium-4e0a"/>
     <use xlink:href="#STHeitiTC-Medium-5366" transform="translate(99.999985 0)"/>
     <use xlink:href="#STHeitiTC-Medium-ff08" transform="translate(199.999969 0)"/>
     <use xlink:href="#STHeitiTC-Medium-5916" transform="translate(299.999954 0)"/>
     <use xlink:href="#STHeitiTC-Medium-5728" transform="translate(399.999939 0)"/>
     <use xlink:href="#STHeitiTC-Medium-74b0" transform="translate(499.999924 0)"/>
     <use xlink:href="#STHeitiTC-Medium-5883" transform="translate(599.999908 0)"/>
     <use xlink:href="#STHeitiTC-Medium-ff09" transform="translate(699.999893 0)"/>
    </g>
   </g>
   <g id="text_14">
    <!-- ← 弱 -->
    <g style="fill: #808080" transform="translate(176.12525 125.020094) scale(0.11 -0.11)">
     <defs>
      <path id="STHeitiTC-Medium-2190" d="M 6131 2131 
L 2278 2131 
L 2278 1107 
L 288 2317 
L 2278 3507 
L 2278 2477 
L 6131 2477 
L 6131 2131 
z
" transform="scale(0.015625)"/>
     </defs>
     <use xlink:href="#STHeitiTC-Medium-2190"/>
     <use xlink:href="#STHeitiTC-Medium-20" transform="translate(99.999985 0)"/>
     <use xlink:href="#STHeitiTC-Medium-5f31" transform="translate(124.999969 0)"/>
    </g>
   </g>
   <g id="text_15">
    <!-- 強 → -->
    <g style="fill: #808080" transform="translate(569.64775 125.020094) scale(0.11 -0.11)">
     <defs>
      <path id="STHeitiTC-Medium-2192" d="M 6086 2285 
L 4115 1114 
L 4115 2131 
L 262 2131 
L 262 2477 
L 4115 2477 
L 4115 3526 
L 6086 2285 
z
" transform="scale(0.015625)"/>
     </defs>
     <use xlink:href="#STHeitiTC-Medium-5f37"/>
     <use xlink:href="#STHeitiTC-Medium-20" transform="translate(99.999985 0)"/>
     <use xlink:href="#STHeitiTC-Medium-2192" transform="translate(124.999969 0)"/>
    </g>
   </g>
   <g id="text_16">
    <!-- 下卦 -->
    <g transform="translate(33.2 416.032156) scale(0.13 -0.13)">
     <defs>
      <path id="STHeitiTC-Medium-4e0b" d="M 5139 1184 
Q 4954 1421 4778 1625 
Q 4602 1830 4416 2016 
Q 4230 2202 4022 2378 
Q 3814 2554 3571 2726 
L 3994 3123 
Q 4314 2874 4547 2678 
Q 4781 2483 4973 2313 
Q 5165 2144 5328 1981 
Q 5491 1818 5664 1632 
L 5139 1184 
z
M 3296 397 
Q 3296 250 3299 134 
Q 3302 19 3305 -96 
Q 3309 -211 3318 -336 
Q 3328 -461 3347 -621 
L 2675 -621 
Q 2688 -467 2694 -342 
Q 2701 -218 2707 -102 
Q 2714 13 2714 131 
Q 2714 250 2714 397 
L 2714 4083 
Q 2336 4083 2019 4076 
Q 1702 4070 1427 4064 
Q 1152 4058 915 4045 
Q 678 4032 461 4019 
L 461 4646 
Q 717 4627 998 4617 
Q 1280 4608 1613 4598 
Q 1946 4589 2336 4585 
Q 2726 4582 3200 4582 
Q 3667 4582 4060 4585 
Q 4454 4589 4787 4598 
Q 5120 4608 5405 4617 
Q 5690 4627 5939 4646 
L 5939 4019 
Q 5696 4038 5421 4048 
Q 5146 4058 4822 4067 
Q 4499 4077 4121 4080 
Q 3744 4083 3296 4083 
L 3296 397 
z
" transform="scale(0.015625)"/>
     </defs>
     <use xlink:href="#STHeitiTC-Medium-4e0b"/>
     <use xlink:href="#STHeitiTC-Medium-5366" transform="translate(99.999985 0)"/>
    </g>
    <!-- （內在） -->
    <g transform="translate(7.2 430.39675) scale(0.13 -0.13)">
     <use xlink:href="#STHeitiTC-Medium-ff08"/>
     <use xlink:href="#STHeitiTC-Medium-5167" transform="translate(99.999985 0)"/>
     <use xlink:href="#STHeitiTC-Medium-5728" transform="translate(199.999969 0)"/>
     <use xlink:href="#STHeitiTC-Medium-ff09" transform="translate(299.999954 0)"/>
    </g>
   </g>
   <g id="text_17">
    <!-- ↑強 -->
    <g style="fill: #808080" transform="translate(70.9305 225.776172) scale(0.11 -0.11)">
     <defs>
      <path id="STHeitiTC-Medium-2191" d="M 4384 3219 
L 3360 3219 
L 3360 -634 
L 3014 -634 
L 3014 3219 
L 1984 3219 
L 3206 5190 
L 4384 3219 
z
" transform="scale(0.015625)"/>
     </defs>
     <use xlink:href="#STHeitiTC-Medium-2191"/>
     <use xlink:href="#STHeitiTC-Medium-5f37" transform="translate(99.999985 0)"/>
    </g>
   </g>
   <g id="text_18">
    <!-- ↓弱 -->
    <g style="fill: #808080" transform="translate(70.9305 619.298672) scale(0.11 -0.11)">
     <defs>
      <path id="STHeitiTC-Medium-2193" d="M 4429 1389 
L 3213 -582 
L 2035 1389 
L 3046 1389 
L 3046 5242 
L 3392 5242 
L 3392 1389 
L 4429 1389 
z
" transform="scale(0.015625)"/>
     </defs>
     <use xlink:href="#STHeitiTC-Medium-2193"/>
     <use xlink:href="#STHeitiTC-Medium-5f31" transform="translate(99.999985 0)"/>
    </g>
   </g>
   <g id="text_19">
    <!-- 64卦四象限分析 -->
    <g transform="translate(286.0715 23.4) scale(0.2 -0.2)">
     <defs>
      <path id="STHeitiTC-Medium-36" d="M 1594 3098 
Q 1798 3155 1984 3155 
Q 2515 3155 2912 2732 
Q 3309 2310 3309 1708 
Q 3309 1107 2880 688 
Q 2451 269 1830 269 
Q 1210 269 797 691 
Q 384 1114 384 1722 
Q 384 2016 499 2326 
Q 614 2637 915 3085 
L 2336 5203 
L 2797 4915 
L 1594 3098 
z
M 1843 806 
Q 2221 806 2493 1075 
Q 2765 1344 2765 1728 
Q 2765 2112 2496 2381 
Q 2227 2650 1843 2650 
Q 1459 2650 1190 2381 
Q 922 2112 922 1728 
Q 922 1344 1194 1075 
Q 1466 806 1843 806 
z
" transform="scale(0.015625)"/>
      <path id="STHeitiTC-Medium-34" d="M 3418 1453 
L 2861 1453 
L 2861 384 
L 2317 384 
L 2317 1453 
L 70 1453 
L 2701 5184 
L 2861 5184 
L 2861 1984 
L 3418 1984 
L 3418 1453 
z
M 2317 1984 
L 2317 3712 
L 1094 1984 
L 2317 1984 
z
" transform="scale(0.015625)"/>
      <path id="STHeitiTC-Medium-56db" d="M 5082 4032 
L 3994 4032 
L 3994 2106 
Q 3994 2003 4003 1945 
Q 4013 1888 4048 1859 
Q 4083 1830 4153 1824 
Q 4224 1818 4352 1824 
Q 4538 1837 4688 1872 
Q 4838 1907 4902 1958 
Q 4851 1747 4828 1564 
Q 4806 1382 4819 1293 
Q 4653 1280 4441 1280 
Q 4230 1280 4006 1280 
Q 3821 1280 3718 1302 
Q 3616 1325 3561 1389 
Q 3507 1453 3494 1565 
Q 3482 1677 3482 1862 
L 3482 4032 
L 2835 4032 
Q 2835 3571 2825 3216 
Q 2816 2861 2781 2589 
Q 2746 2317 2682 2105 
Q 2618 1894 2515 1708 
Q 2413 1523 2269 1353 
Q 2125 1184 1926 992 
Q 1728 1210 1427 1350 
Q 1702 1536 1884 1737 
Q 2067 1939 2169 2236 
Q 2272 2534 2301 2963 
Q 2330 3392 2298 4032 
L 1306 4032 
L 1306 653 
L 5082 653 
L 5082 4032 
z
M 1306 -192 
L 723 -192 
Q 755 70 771 364 
Q 787 659 787 979 
L 787 3648 
Q 787 3942 777 4172 
Q 768 4403 742 4576 
Q 851 4557 1001 4547 
Q 1152 4538 1424 4531 
Q 1696 4525 2121 4521 
Q 2547 4518 3206 4518 
Q 3866 4518 4291 4521 
Q 4717 4525 4989 4531 
Q 5261 4538 5411 4547 
Q 5562 4557 5664 4576 
Q 5638 4397 5632 4169 
Q 5626 3942 5626 3648 
L 5626 1018 
Q 5626 678 5635 384 
Q 5645 90 5677 -154 
L 5082 -154 
L 5082 179 
L 1306 179 
L 1306 -192 
z
" transform="scale(0.015625)"/>
      <path id="STHeitiTC-Medium-8c61" d="M 3027 3430 
L 1606 3430 
L 1606 2886 
L 3027 2886 
L 3027 3430 
z
M 3546 2886 
L 4896 2886 
L 4896 3430 
L 3546 3430 
L 3546 2886 
z
M 1984 4237 
Q 1862 4122 1744 4010 
Q 1626 3898 1491 3789 
L 3603 3789 
L 3910 4237 
L 1984 4237 
z
M 4518 1485 
Q 4666 1043 5075 729 
Q 5485 416 6067 282 
Q 5901 141 5808 19 
Q 5715 -102 5638 -301 
Q 5082 -58 4733 352 
Q 4384 762 4205 1261 
Q 4096 1184 3984 1107 
Q 3872 1030 3795 973 
Q 3827 838 3843 672 
Q 3859 506 3859 333 
Q 3859 83 3795 -105 
Q 3731 -294 3587 -428 
Q 3443 -563 3203 -646 
Q 2963 -730 2618 -768 
Q 2605 -666 2589 -582 
Q 2573 -499 2547 -419 
Q 2522 -339 2480 -256 
Q 2438 -173 2381 -64 
Q 2694 -141 2899 -137 
Q 3104 -134 3213 -25 
Q 3322 83 3350 304 
Q 3379 525 3334 877 
Q 3149 698 2877 509 
Q 2605 320 2275 137 
Q 1946 -45 1581 -211 
Q 1216 -378 851 -512 
Q 787 -358 710 -246 
Q 634 -134 499 -26 
Q 832 19 1181 128 
Q 1530 237 1875 403 
Q 2221 570 2550 794 
Q 2880 1018 3168 1299 
Q 3136 1363 3097 1424 
Q 3059 1485 3014 1555 
Q 2694 1254 2172 972 
Q 1651 691 806 390 
Q 736 518 637 636 
Q 538 755 384 883 
Q 595 870 880 928 
Q 1165 986 1488 1104 
Q 1811 1222 2140 1408 
Q 2470 1594 2771 1843 
Q 2682 1939 2566 2048 
Q 2394 1939 2224 1849 
Q 2054 1760 1856 1680 
Q 1658 1600 1421 1517 
Q 1184 1434 883 1344 
Q 781 1613 576 1818 
Q 1171 1882 1664 2054 
Q 2157 2227 2509 2515 
Q 2253 2515 2016 2515 
Q 1779 2515 1584 2512 
Q 1389 2509 1251 2505 
Q 1114 2502 1056 2502 
Q 1069 2579 1078 2652 
Q 1088 2726 1091 2832 
Q 1094 2938 1097 3091 
Q 1101 3245 1101 3475 
Q 1024 3411 941 3350 
Q 858 3290 768 3219 
Q 691 3328 585 3421 
Q 480 3514 326 3584 
Q 570 3680 864 3878 
Q 1158 4077 1420 4317 
Q 1683 4557 1884 4806 
Q 2086 5056 2150 5248 
Q 2317 5178 2489 5120 
Q 2662 5062 2746 5043 
Q 2861 5018 2845 4957 
Q 2829 4896 2688 4870 
Q 2656 4864 2589 4816 
Q 2522 4768 2368 4621 
L 3565 4621 
Q 3680 4621 3853 4624 
Q 4026 4627 4205 4633 
Q 4384 4640 4550 4649 
Q 4717 4659 4819 4666 
L 4115 3789 
Q 4384 3789 4573 3789 
Q 4762 3789 4906 3792 
Q 5050 3795 5174 3801 
Q 5299 3808 5440 3814 
Q 5427 3686 5420 3513 
Q 5414 3341 5414 3155 
Q 5414 2970 5420 2797 
Q 5427 2624 5440 2496 
Q 5261 2509 5136 2512 
Q 5011 2515 4883 2515 
L 3123 2515 
Q 3072 2451 3017 2400 
Q 2963 2349 2912 2298 
Q 3136 2093 3334 1856 
Q 3533 1619 3654 1389 
Q 4032 1632 4301 1859 
Q 4570 2086 4755 2330 
Q 4800 2272 4870 2214 
Q 4941 2157 5017 2102 
Q 5094 2048 5161 2006 
Q 5229 1965 5280 1946 
Q 5331 1920 5318 1885 
Q 5306 1850 5203 1843 
Q 5126 1837 4972 1760 
Q 4819 1683 4518 1485 
z
" transform="scale(0.015625)"/>
      <path id="STHeitiTC-Medium-9650" d="M 3232 4390 
L 3232 3814 
L 4806 3814 
L 4806 4390 
L 3232 4390 
z
M 3232 3373 
L 3232 2707 
L 4806 2707 
L 4806 3373 
L 3232 3373 
z
M 1728 2912 
Q 2035 2554 2224 2173 
Q 2413 1792 2413 1440 
Q 2413 1094 2128 844 
Q 1843 595 1338 518 
Q 1331 800 1094 1120 
Q 1510 1088 1689 1193 
Q 1869 1299 1882 1536 
Q 1894 1786 1747 2131 
Q 1600 2477 1299 2816 
L 1773 4384 
L 1037 4384 
L 1037 -550 
L 506 -550 
Q 512 -333 518 -147 
Q 525 38 528 214 
Q 531 390 531 566 
Q 531 742 531 947 
L 531 4237 
Q 531 4422 521 4598 
Q 512 4774 486 4902 
Q 672 4870 909 4860 
Q 1146 4851 1491 4851 
Q 1830 4851 2057 4860 
Q 2285 4870 2470 4902 
L 1728 2912 
z
M 4333 1389 
Q 4602 1594 4803 1805 
Q 5005 2016 5152 2240 
Q 5235 2125 5360 2003 
Q 5485 1882 5574 1824 
Q 5606 1805 5600 1782 
Q 5594 1760 5562 1747 
Q 5453 1715 5209 1545 
Q 4966 1376 4506 1011 
Q 4710 717 5094 486 
Q 5478 256 5907 134 
Q 5638 -230 5574 -480 
Q 5190 -333 4832 -51 
Q 4474 230 4230 614 
Q 4122 781 4038 957 
Q 3955 1133 3891 1334 
Q 3827 1536 3779 1776 
Q 3731 2016 3699 2323 
L 3238 2323 
L 3238 243 
Q 3475 371 3651 470 
Q 3827 570 3878 602 
Q 3885 448 3910 329 
Q 3936 211 3974 83 
L 3168 -378 
Q 2989 -480 2909 -534 
Q 2829 -589 2758 -653 
Q 2707 -525 2646 -419 
Q 2586 -314 2477 -141 
Q 2541 -115 2614 -80 
Q 2688 -45 2733 -19 
L 2733 4250 
Q 2733 4448 2726 4608 
Q 2720 4768 2701 4922 
Q 2784 4909 2928 4899 
Q 3072 4890 3248 4880 
Q 3424 4870 3625 4867 
Q 3827 4864 4032 4864 
Q 4250 4864 4458 4867 
Q 4666 4870 4845 4880 
Q 5024 4890 5158 4899 
Q 5293 4909 5370 4922 
Q 5350 4755 5344 4598 
Q 5338 4442 5338 4250 
L 5338 2989 
Q 5338 2835 5347 2652 
Q 5357 2470 5376 2272 
Q 5306 2278 5203 2288 
Q 5101 2298 4953 2304 
Q 4806 2310 4604 2316 
Q 4403 2323 4128 2323 
Q 4160 2067 4214 1820 
Q 4269 1574 4333 1389 
z
" transform="scale(0.015625)"/>
      <path id="STHeitiTC-Medium-5206" d="M 6131 2669 
Q 5990 2579 5856 2400 
Q 5722 2221 5664 2054 
Q 5318 2310 5046 2550 
Q 4774 2790 4563 3049 
Q 4352 3309 4205 3606 
Q 4058 3904 3968 4282 
L 3597 4282 
Q 3373 4282 3142 4272 
Q 2912 4262 2726 4243 
L 2726 4768 
Q 2918 4749 3104 4736 
Q 3290 4723 3456 4723 
Q 3744 4723 3981 4732 
Q 4218 4742 4390 4768 
Q 4461 4352 4598 4035 
Q 4736 3718 4947 3472 
Q 5158 3226 5452 3034 
Q 5747 2842 6131 2669 
z
M 2470 4211 
Q 2374 4173 2278 4048 
Q 2182 3923 2131 3808 
Q 1971 3469 1836 3222 
Q 1702 2976 1555 2768 
Q 1408 2560 1222 2361 
Q 1037 2163 781 1920 
Q 691 2042 553 2147 
Q 416 2253 262 2330 
Q 877 2746 1267 3309 
Q 1658 3872 1888 4570 
Q 2035 4486 2185 4425 
Q 2336 4365 2464 4352 
Q 2541 4339 2544 4291 
Q 2547 4243 2470 4211 
z
M 2381 2074 
Q 2106 2074 1920 2064 
Q 1734 2054 1530 2029 
L 1530 2624 
Q 1683 2598 2016 2585 
Q 2349 2573 2854 2573 
Q 3155 2573 3481 2576 
Q 3808 2579 4096 2582 
Q 4384 2586 4614 2589 
Q 4845 2592 4954 2598 
L 4736 109 
Q 4717 -90 4659 -218 
Q 4602 -346 4470 -432 
Q 4339 -518 4121 -576 
Q 3904 -634 3565 -678 
Q 3533 -506 3462 -330 
Q 3392 -154 3270 6 
Q 3539 -19 3712 -12 
Q 3885 -6 3990 58 
Q 4096 122 4147 250 
Q 4198 378 4218 589 
L 4346 2074 
L 2912 2074 
Q 2880 1632 2777 1235 
Q 2675 838 2490 563 
Q 2336 339 2192 163 
Q 2048 -13 1894 -157 
Q 1741 -301 1568 -422 
Q 1395 -544 1184 -666 
Q 1075 -538 921 -426 
Q 768 -314 595 -243 
Q 1126 -26 1475 249 
Q 1824 525 1978 768 
Q 2163 1062 2259 1363 
Q 2355 1664 2381 2074 
z
" transform="scale(0.015625)"/>
      <path id="STHeitiTC-Medium-6790" d="M 2426 1376 
Q 2374 1638 2262 1948 
Q 2150 2259 2022 2509 
L 2490 2688 
Q 2598 2362 2697 2090 
Q 2797 1818 2886 1587 
L 2426 1376 
z
M 4870 3168 
Q 5126 3168 5299 3171 
Q 5472 3174 5609 3180 
Q 5747 3187 5868 3200 
Q 5990 3213 6144 3232 
L 6144 2637 
Q 6022 2656 5920 2665 
Q 5818 2675 5709 2681 
Q 5600 2688 5475 2694 
Q 5350 2701 5190 2701 
L 5190 403 
Q 5190 115 5203 -121 
Q 5216 -358 5242 -614 
L 4602 -614 
Q 4634 -352 4643 -118 
Q 4653 115 4653 403 
L 4653 2701 
L 3712 2701 
Q 3712 2106 3661 1642 
Q 3610 1178 3498 787 
Q 3386 397 3210 54 
Q 3034 -288 2778 -634 
Q 2656 -544 2518 -451 
Q 2381 -358 2221 -256 
Q 2509 13 2691 275 
Q 2874 538 2979 886 
Q 3085 1235 3129 1718 
Q 3174 2202 3181 2912 
Q 3187 3379 3187 3667 
Q 3187 3955 3180 4140 
Q 3174 4326 3164 4444 
Q 3155 4563 3136 4698 
Q 3366 4678 3702 4707 
Q 4038 4736 4384 4797 
Q 4730 4858 5046 4938 
Q 5363 5018 5555 5101 
Q 5581 5043 5622 4963 
Q 5664 4883 5709 4806 
Q 5754 4730 5798 4666 
Q 5843 4602 5875 4570 
Q 5965 4486 5945 4444 
Q 5926 4403 5779 4416 
Q 5683 4429 5456 4413 
Q 5229 4397 4947 4365 
Q 4762 4339 4608 4320 
Q 4454 4301 4313 4285 
Q 4173 4269 4029 4256 
Q 3885 4243 3712 4224 
L 3712 3168 
L 4870 3168 
z
M 1434 2112 
Q 1338 1818 1258 1610 
Q 1178 1402 1091 1238 
Q 1005 1075 896 924 
Q 787 774 634 595 
Q 544 742 451 867 
Q 358 992 250 1101 
Q 448 1299 614 1513 
Q 781 1728 921 1987 
Q 1062 2246 1187 2560 
Q 1312 2874 1427 3277 
Q 1101 3270 854 3257 
Q 608 3245 416 3226 
L 416 3827 
Q 608 3802 854 3792 
Q 1101 3782 1434 3776 
Q 1434 4314 1421 4643 
Q 1408 4973 1376 5184 
Q 1581 5152 1715 5145 
Q 1850 5139 1965 5152 
Q 2074 5165 2083 5117 
Q 2093 5069 2003 4986 
Q 1971 4954 1945 4867 
Q 1920 4781 1920 4723 
L 1920 3776 
Q 2208 3782 2432 3792 
Q 2656 3802 2829 3827 
L 2829 3226 
Q 2656 3245 2432 3257 
Q 2208 3270 1920 3277 
L 1920 506 
Q 1920 250 1936 -67 
Q 1952 -384 1984 -698 
L 1370 -698 
Q 1402 -384 1418 -67 
Q 1434 250 1434 506 
L 1434 2112 
z
" transform="scale(0.015625)"/>
     </defs>
     <use xlink:href="#STHeitiTC-Medium-36"/>
     <use xlink:href="#STHeitiTC-Medium-34" transform="translate(55.399994 0)"/>
     <use xlink:href="#STHeitiTC-Medium-5366" transform="translate(110.799988 0)"/>
     <use xlink:href="#STHeitiTC-Medium-56db" transform="translate(210.799973 0)"/>
     <use xlink:href="#STHeitiTC-Medium-8c61" transform="translate(310.799957 0)"/>
     <use xlink:href="#STHeitiTC-Medium-9650" transform="translate(410.799942 0)"/>
     <use xlink:href="#STHeitiTC-Medium-5206" transform="translate(510.799927 0)"/>
     <use xlink:href="#STHeitiTC-Medium-6790" transform="translate(610.799911 0)"/>
    </g>
   </g>
  </g>
 </g>
 <defs>
  <clipPath id="pcdb920fbd6">
   <rect x="19.84775" y="53.4" width="674.61" height="674.61"/>
  </clipPath>
 </defs>
</svg>
